<?xml version="1.0" encoding="utf-8" standalone="no"?>
<!DOCTYPE svg PUBLIC "-//W3C//DTD SVG 1.1//EN"
  "http://www.w3.org/Graphics/SVG/1.1/DTD/svg11.dtd">
<svg height="288pt" version="1.1" viewBox="0 0 216 288" width="216pt" xmlns="http://www.w3.org/2000/svg" xmlns:xlink="http://www.w3.org/1999/xlink">
 <metadata>
  <rdf:RDF xmlns:cc="http://creativecommons.org/ns#" xmlns:dc="http://purl.org/dc/elements/1.1/" xmlns:rdf="http://www.w3.org/1999/02/22-rdf-syntax-ns#">
   <cc:Work>
    <dc:type rdf:resource="http://purl.org/dc/dcmitype/StillImage"/>
    <dc:date>2023-12-10T19:51:38.153472</dc:date>
    <dc:format>image/svg+xml</dc:format>
    <dc:creator>
     <cc:Agent>
      <dc:title>Matplotlib v3.4.3, https://matplotlib.org/</dc:title>
     </cc:Agent>
    </dc:creator>
   </cc:Work>
  </rdf:RDF>
 </metadata>
 <defs>
  <style type="text/css">*{stroke-linecap:butt;stroke-linejoin:round;}</style>
 </defs>
 <g id="figure_1">
  <g id="patch_1">
   <path d="M 0 288 
L 216 288 
L 216 0 
L 0 0 
z
" style="fill:none;"/>
  </g>
  <g id="axes_1">
   <g id="patch_2">
    <path clip-path="url(#p35a1e2d2dd)" d="M 92.86314 64.677896 
Q 111.991679 123.788166 170.507521 141.051819 
" style="fill:none;stroke:#000000;stroke-linecap:round;"/>
    <path clip-path="url(#p35a1e2d2dd)" d="M 162.658122 133.73151 
L 170.507521 141.051819 
L 159.941634 142.939153 
" style="fill:none;stroke:#000000;stroke-linecap:round;"/>
   </g>
   <g id="patch_3">
    <path clip-path="url(#p35a1e2d2dd)" d="M 48.848847 137.044574 
Q 62.009562 119.616944 58.47662 99.199668 
" style="fill:none;stroke:#000000;stroke-linecap:round;"/>
    <path clip-path="url(#p35a1e2d2dd)" d="M 55.383736 109.477512 
L 58.47662 99.199668 
L 64.843164 107.840682 
" style="fill:none;stroke:#000000;stroke-linecap:round;"/>
   </g>
   <g id="patch_4">
    <path clip-path="url(#p35a1e2d2dd)" d="M 98.206665 234.609717 
Q 111.563208 239.674182 123.874365 235.005404 
" style="fill:none;stroke:#000000;stroke-linecap:round;"/>
    <path clip-path="url(#p35a1e2d2dd)" d="M 113.196123 233.92136 
L 123.874365 235.005404 
L 116.600185 242.897571 
" style="fill:none;stroke:#000000;stroke-linecap:round;"/>
   </g>
   <g id="patch_5">
    <path clip-path="url(#p35a1e2d2dd)" d="M 159.329598 193.26168 
Q 111.561882 168.517747 64.786911 192.747766 
" style="fill:none;stroke:#000000;stroke-linecap:round;"/>
    <path clip-path="url(#p35a1e2d2dd)" d="M 75.518939 192.594223 
L 64.786911 192.747766 
L 71.103294 184.070018 
" style="fill:none;stroke:#000000;stroke-linecap:round;"/>
   </g>
   <g id="patch_6">
    <path clip-path="url(#p35a1e2d2dd)" d="M 182.004242 135.171798 
Q 185.727645 113.652903 173.240538 97.117522 
" style="fill:none;stroke:#000000;stroke-linecap:round;"/>
    <path clip-path="url(#p35a1e2d2dd)" d="M 175.195415 107.671121 
L 173.240538 97.117522 
L 182.856343 101.885779 
" style="fill:none;stroke:#000000;stroke-linecap:round;"/>
   </g>
   <g id="patch_7">
    <path clip-path="url(#p35a1e2d2dd)" d="M 164.063587 81.499701 
Q 157.073387 65.555542 141.987839 59.405706 
" style="fill:none;stroke:#000000;stroke-linecap:round;"/>
    <path clip-path="url(#p35a1e2d2dd)" d="M 149.065524 67.474557 
L 141.987839 59.405706 
L 152.689531 58.584868 
" style="fill:none;stroke:#000000;stroke-linecap:round;"/>
   </g>
   <g id="patch_8">
    <path clip-path="url(#p35a1e2d2dd)" d="M 124.917748 52.562648 
Q 111.561209 47.498187 99.250058 52.166965 
" style="fill:none;stroke:#000000;stroke-linecap:round;"/>
    <path clip-path="url(#p35a1e2d2dd)" d="M 109.9283 53.251007 
L 99.250058 52.166965 
L 106.524237 44.274796 
" style="fill:none;stroke:#000000;stroke-linecap:round;"/>
   </g>
   <g id="patch_9">
    <path clip-path="url(#p35a1e2d2dd)" d="M 50.557396 96.225659 
Q 37.396682 113.653289 40.929623 134.070565 
" style="fill:none;stroke:#000000;stroke-linecap:round;"/>
    <path clip-path="url(#p35a1e2d2dd)" d="M 44.022508 123.792721 
L 40.929623 134.070565 
L 34.563079 125.429551 
" style="fill:none;stroke:#000000;stroke-linecap:round;"/>
   </g>
   <g id="patch_10">
    <path clip-path="url(#p35a1e2d2dd)" d="M 59.060837 205.672669 
Q 66.051033 221.616823 81.136575 227.766657 
" style="fill:none;stroke:#000000;stroke-linecap:round;"/>
    <path clip-path="url(#p35a1e2d2dd)" d="M 74.05889 219.697806 
L 81.136575 227.766657 
L 70.434882 228.587495 
" style="fill:none;stroke:#000000;stroke-linecap:round;"/>
   </g>
   <g id="patch_11">
    <path clip-path="url(#p35a1e2d2dd)" d="M 140.951171 228.189273 
Q 157.072409 221.617776 163.614044 206.697956 
" style="fill:none;stroke:#000000;stroke-linecap:round;"/>
    <path clip-path="url(#p35a1e2d2dd)" d="M 155.363138 213.562543 
L 163.614044 206.697956 
L 164.15517 217.417433 
" style="fill:none;stroke:#000000;stroke-linecap:round;"/>
   </g>
   <g id="PathCollection_1">
    <defs>
     <path d="M 0 5 
C 1.326016 5 2.597899 4.473168 3.535534 3.535534 
C 4.473168 2.597899 5 1.326016 5 -0 
C 5 -1.326016 4.473168 -2.597899 3.535534 -3.535534 
C 2.597899 -4.473168 1.326016 -5 0 -5 
C -1.326016 -5 -2.597899 -4.473168 -3.535534 -3.535534 
C -4.473168 -2.597899 -5 -1.326016 -5 0 
C -5 1.326016 -4.473168 2.597899 -3.535534 3.535534 
C -2.597899 4.473168 -1.326016 5 0 5 
z
" id="C0_0_aacc28b370"/>
    </defs>
    <g clip-path="url(#p35a1e2d2dd)">
     <use style="fill:none;stroke:#000000;" x="179.951936" xlink:href="#C0_0_aacc28b370" y="143.586184"/>
    </g>
    <g clip-path="url(#p35a1e2d2dd)">
     <use style="fill:none;stroke:#000000;" x="166.890662" xlink:href="#C0_0_aacc28b370" y="89.684041"/>
    </g>
    <g clip-path="url(#p35a1e2d2dd)">
     <use style="fill:none;stroke:#000000;" x="132.695796" xlink:href="#C0_0_aacc28b370" y="56.370681"/>
    </g>
    <g clip-path="url(#p35a1e2d2dd)">
     <use style="fill:none;stroke:#000000;" x="90.42862" xlink:href="#C0_0_aacc28b370" y="56.370687"/>
    </g>
    <g clip-path="url(#p35a1e2d2dd)">
     <use style="fill:none;stroke:#000000;" x="56.233759" xlink:href="#C0_0_aacc28b370" y="89.684041"/>
    </g>
    <g clip-path="url(#p35a1e2d2dd)">
     <use style="fill:none;stroke:#000000;" x="43.172484" xlink:href="#C0_0_aacc28b370" y="143.586192"/>
    </g>
    <g clip-path="url(#p35a1e2d2dd)">
     <use style="fill:none;stroke:#000000;" x="56.233763" xlink:href="#C0_0_aacc28b370" y="197.488332"/>
    </g>
    <g clip-path="url(#p35a1e2d2dd)">
     <use style="fill:none;stroke:#000000;" x="90.428614" xlink:href="#C0_0_aacc28b370" y="230.801681"/>
    </g>
    <g clip-path="url(#p35a1e2d2dd)">
     <use style="fill:none;stroke:#000000;" x="132.695807" xlink:href="#C0_0_aacc28b370" y="230.801681"/>
    </g>
    <g clip-path="url(#p35a1e2d2dd)">
     <use style="fill:none;stroke:#000000;" x="166.890658" xlink:href="#C0_0_aacc28b370" y="197.488332"/>
    </g>
   </g>
  </g>
 </g>
 <defs>
  <clipPath id="p35a1e2d2dd">
   <rect height="217.44" width="167.4" x="27" y="34.56"/>
  </clipPath>
 </defs>
</svg>
