<?xml version="1.0" encoding="UTF-8" standalone="no"?>
<!-- Generator: Adobe Illustrator 16.0.3, SVG Export Plug-In . SVG Version: 6.00 Build 0)  -->

<svg
   version="1.1"
   id="Layer_1"
   x="0px"
   y="0px"
   width="302.46219"
   height="50.220486"
   viewBox="0 0 926.06365 227.771"
   enable-background="new 0 0 612.35 226.771"
   xml:space="preserve"
   sodipodi:docname="laser.svg"
   inkscape:version="1.4.2 (ebf0e940, 2025-05-08)"
   xmlns:inkscape="http://www.inkscape.org/namespaces/inkscape"
   xmlns:sodipodi="http://sodipodi.sourceforge.net/DTD/sodipodi-0.dtd"
   xmlns="http://www.w3.org/2000/svg"
   xmlns:svg="http://www.w3.org/2000/svg"><defs
   id="defs1" /><sodipodi:namedview
   id="namedview1"
   pagecolor="#ffffff"
   bordercolor="#000000"
   borderopacity="0.25"
   inkscape:showpageshadow="2"
   inkscape:pageopacity="0.0"
   inkscape:pagecheckerboard="0"
   inkscape:deskcolor="#d1d1d1"
   inkscape:zoom="2.0314736"
   inkscape:cx="166.87394"
   inkscape:cy="31.996478"
   inkscape:window-width="1416"
   inkscape:window-height="693"
   inkscape:window-x="96"
   inkscape:window-y="108"
   inkscape:window-maximized="0"
   inkscape:current-layer="Layer_1" />
<polygon
   fill="#d92f27"
   points="136.468,83.548 174.517,17.645 166.015,12.736 127.965,78.64 137.458,43.21 137.572,42.782 128.09,40.24 118.481,76.099 118.481,0 108.663,0 108.663,76.099 99.055,40.24 89.571,42.782 99.178,78.636 61.352,13.119 61.13,12.736 52.628,17.645 90.678,83.55 64.741,57.612 64.428,57.3 57.485,64.241 83.735,90.491 17.832,52.441 12.922,60.943 78.826,98.993 43.397,89.5 42.969,89.386 40.427,98.869 75.587,108.29 0,108.29 0,118.48 75.588,118.48 40.855,127.788 40.428,127.902 42.969,137.386 78.828,127.777 13.306,165.605 12.923,165.828 17.832,174.33 83.733,136.282 57.485,162.528 64.428,169.471 90.678,143.222 52.849,208.743 52.628,209.127 61.131,214.034 99.181,148.131 89.572,183.988 99.056,186.53 108.663,150.676 108.663,226.771 118.481,226.771 118.481,150.677 127.974,186.102 128.088,186.529 137.572,183.988 127.964,148.129 166.015,214.035 174.517,209.125 136.47,143.226 162.402,169.159 162.716,169.471 169.658,162.528 143.41,136.281 209.312,174.33 214.222,165.828 148.317,127.778 183.748,137.271 184.176,137.386 186.718,127.902 151.558,118.48 612.35,118.48 612.35,108.29 151.556,108.29 186.289,98.983 186.718,98.869 184.176,89.386 148.318,98.994 214.222,60.944 209.314,52.441 143.41,90.49 169.346,64.555 169.658,64.242 162.716,57.3 "
   id="polygon1"
   style="stroke:#d92f27;stroke-opacity:1"
   transform="translate(-222.36472,0.5)" />
<path
   style="fill:#d92f27;fill-opacity:1;stroke:#d92f27;stroke-width:11.1798;stroke-dasharray:none;stroke-opacity:1;paint-order:markers stroke fill"
   d="M 390.34289,113.8824 H 1084.1837"
   id="path1" /></svg>
