<?xml version="1.0" encoding="utf-8" standalone="no"?>
<!DOCTYPE svg PUBLIC "-//W3C//DTD SVG 1.1//EN"
  "http://www.w3.org/Graphics/SVG/1.1/DTD/svg11.dtd">
<svg xmlns:xlink="http://www.w3.org/1999/xlink" width="504pt" height="100.8pt" viewBox="0 0 504 100.8" xmlns="http://www.w3.org/2000/svg" version="1.1">
 <metadata>
  <rdf:RDF xmlns:dc="http://purl.org/dc/elements/1.1/" xmlns:cc="http://creativecommons.org/ns#" xmlns:rdf="http://www.w3.org/1999/02/22-rdf-syntax-ns#">
   <cc:Work>
    <dc:type rdf:resource="http://purl.org/dc/dcmitype/StillImage"/>
    <dc:date>2024-02-28T20:24:09.850174</dc:date>
    <dc:format>image/svg+xml</dc:format>
    <dc:creator>
     <cc:Agent>
      <dc:title>Matplotlib v3.8.2, https://matplotlib.org/</dc:title>
     </cc:Agent>
    </dc:creator>
   </cc:Work>
  </rdf:RDF>
 </metadata>
 <defs>
  <style type="text/css">*{stroke-linejoin: round; stroke-linecap: butt}</style>
 </defs>
 <g id="figure_1">
  <g id="patch_1">
   <path d="M 0 100.8 
L 504 100.8 
L 504 0 
L 0 0 
L 0 100.8 
z
" style="fill: none"/>
  </g>
  <g id="axes_1">
   <g id="patch_2">
    <path d="M 83.170446 83.589495 
Q 120.43651 89.260196 157.702574 83.589452 
" clip-path="url(#pa87c56c506)" style="fill: none; stroke: #000000; stroke-linecap: round"/>
    <path d="M 88.650855 87.457972 
L 83.170446 83.589495 
L 89.553473 81.526253 
" clip-path="url(#pa87c56c506)" style="fill: none; stroke: #000000; stroke-linecap: round"/>
    <path d="M 151.319544 81.526217 
L 157.702574 83.589452 
L 152.222168 87.457935 
" clip-path="url(#pa87c56c506)" style="fill: none; stroke: #000000; stroke-linecap: round"/>
   </g>
   <g id="patch_3">
    <path d="M 325.395448 70.121388 
Q 329.047335 76.17365 334.105548 81.111511 
" clip-path="url(#pa87c56c506)" style="fill: none; stroke: #000000; stroke-linecap: round"/>
    <path d="M 325.232919 73.723274 
L 325.395448 70.121388 
L 328.657755 71.656755 
" clip-path="url(#pa87c56c506)" style="fill: none; stroke: #000000; stroke-linecap: round"/>
    <path d="M 333.355928 77.584746 
L 334.105548 81.111511 
L 330.561757 80.447019 
" clip-path="url(#pa87c56c506)" style="fill: none; stroke: #000000; stroke-linecap: round"/>
   </g>
   <g id="line2d_1">
    <path d="M 32.727273 48.678261 
L 43.701884 48.569495 
L 45.018837 48.558463 
L 46.33579 48.793947 
L 48.530713 49.454588 
L 48.969697 49.43874 
L 49.408681 49.309329 
L 49.847666 49.050257 
L 50.725635 48.157291 
L 52.042588 46.460787 
L 52.481572 46.081825 
L 52.920557 45.938667 
L 53.359541 46.105071 
L 53.798526 46.629173 
L 54.23751 47.52155 
L 55.115479 50.216694 
L 56.432432 54.569862 
L 56.871417 55.363677 
L 57.310401 55.520858 
L 57.749386 54.916556 
L 58.18837 53.500136 
L 58.627355 51.312723 
L 59.505324 45.285399 
L 60.383292 39.008668 
L 60.822277 36.692211 
L 61.261261 35.400297 
L 61.700246 35.404121 
L 62.13923 36.855053 
L 62.578215 39.753291 
L 63.456183 49.058791 
L 64.773137 64.957629 
L 65.212121 68.449211 
L 65.651106 70.148621 
L 66.09009 69.72551 
L 66.529075 67.061178 
L 66.968059 62.277753 
L 67.846028 48.035682 
L 68.723997 32.211049 
L 69.162981 25.776755 
L 69.601966 21.359099 
L 70.04095 19.526492 
L 70.479934 20.593386 
L 70.918919 24.573917 
L 71.357903 31.167855 
L 72.235872 49.584134 
L 73.113841 68.761889 
L 73.552826 76.127926 
L 73.99181 80.884312 
L 74.430794 82.489556 
L 74.869779 80.727731 
L 75.308763 75.736942 
L 75.747748 67.998685 
L 77.94267 20.381559 
L 78.381654 16.00856 
L 78.820639 14.920528 
L 79.259623 17.184344 
L 79.698608 22.515476 
L 80.576577 39.734487 
L 81.89353 67.691913 
L 82.332514 73.801852 
L 82.771499 77.213694 
L 83.210483 77.689526 
L 83.649468 75.305772 
L 84.088452 70.432323 
L 84.966421 55.826269 
L 85.84439 40.193055 
L 86.283374 33.966729 
L 86.722359 29.585467 
L 87.161343 27.367535 
L 87.600328 27.385769 
L 88.039312 29.47604 
L 88.478296 33.271152 
L 90.673219 58.29309 
L 91.112203 60.909792 
L 91.551188 62.066107 
L 91.990172 61.794307 
L 92.429156 60.272641 
L 93.307125 54.710478 
L 94.624079 45.549959 
L 95.063063 43.508687 
L 95.502048 42.254522 
L 95.941032 41.809245 
L 96.380016 42.105725 
L 96.819001 43.006983 
L 97.69697 45.875942 
L 98.574939 48.878368 
L 99.013923 50.041904 
L 99.452907 50.861918 
L 99.891892 51.312279 
L 100.330876 51.411915 
L 100.769861 51.215104 
L 101.64783 50.251481 
L 102.964783 48.608312 
L 103.842752 48.01127 
L 104.720721 47.910232 
L 105.59869 48.133559 
L 107.354627 48.69387 
L 108.671581 48.813692 
L 119.646192 48.678261 
L 131.059787 48.590561 
L 132.815725 48.564822 
L 134.132678 48.820325 
L 136.3276 49.459361 
L 136.766585 49.422632 
L 137.205569 49.268171 
L 138.083538 48.567809 
L 140.27846 46.031705 
L 140.717445 45.945192 
L 141.156429 46.180328 
L 141.595414 46.778624 
L 142.034398 47.74194 
L 142.912367 50.529151 
L 143.790336 53.593227 
L 144.22932 54.771656 
L 144.668305 55.450929 
L 145.107289 55.463739 
L 145.546274 54.69833 
L 145.985258 53.121273 
L 146.863227 47.875616 
L 148.18018 38.479427 
L 148.619165 36.341776 
L 149.058149 35.290598 
L 149.497133 35.576203 
L 149.936118 37.321811 
L 150.375102 40.494894 
L 151.253071 50.158446 
L 152.570025 65.777553 
L 153.009009 68.945732 
L 153.447993 70.240903 
L 153.886978 69.371602 
L 154.325962 66.265746 
L 154.764947 61.094876 
L 155.642916 46.418221 
L 156.520885 30.796934 
L 156.959869 24.710565 
L 157.398853 20.771673 
L 157.837838 19.502943 
L 158.276822 21.16151 
L 158.715807 25.698654 
L 159.154791 32.752674 
L 161.349713 77.30957 
L 161.788698 81.469342 
L 162.227682 82.407285 
L 162.666667 79.977226 
L 163.105651 74.388067 
L 163.98362 56.194641 
L 165.300573 25.97672 
L 165.739558 19.259313 
L 166.178542 15.52086 
L 166.617527 15.109305 
L 167.056511 18.020194 
L 167.495495 23.901847 
L 168.373464 41.727095 
L 169.251433 61.213979 
L 169.690418 69.107945 
L 170.129402 74.7122 
L 170.568387 77.545791 
L 171.007371 77.433686 
L 171.446355 74.51375 
L 171.88534 69.209206 
L 172.763309 54.197789 
L 173.641278 38.823351 
L 174.080262 32.929227 
L 174.519247 28.962921 
L 174.958231 27.194274 
L 175.397215 27.647178 
L 175.8362 30.113446 
L 176.275184 34.191215 
L 178.470106 58.92932 
L 178.909091 61.259163 
L 179.348075 62.122216 
L 179.78706 61.582032 
L 180.226044 59.842369 
L 181.104013 54.056052 
L 181.981982 47.671792 
L 182.420966 45.083085 
L 182.859951 43.192795 
L 183.298935 42.101723 
L 183.73792 41.812722 
L 184.176904 42.242942 
L 184.615889 43.244267 
L 186.810811 50.234932 
L 187.249795 50.981555 
L 187.68878 51.358963 
L 188.127764 51.394043 
L 188.566749 51.146715 
L 189.444717 50.133805 
L 190.761671 48.525207 
L 191.63964 47.980491 
L 192.517609 47.921817 
L 193.834562 48.325607 
L 195.151515 48.710928 
L 196.468468 48.813105 
L 204.809173 48.678328 
L 218.856675 48.58509 
L 220.612613 48.572398 
L 221.929566 48.84783 
L 223.685504 49.420074 
L 224.563473 49.40178 
L 225.002457 49.221713 
L 225.880426 48.470964 
L 227.636364 46.286302 
L 228.075348 45.991712 
L 228.514333 45.964674 
L 228.953317 46.270239 
L 229.392301 46.942831 
L 229.831286 47.97526 
L 230.709255 50.844864 
L 231.587224 53.859611 
L 232.026208 54.95339 
L 232.465192 55.511343 
L 232.904177 55.375238 
L 233.343161 54.447332 
L 233.782146 52.71205 
L 234.660115 47.242245 
L 235.977068 37.980281 
L 236.416052 36.03508 
L 236.855037 35.23478 
L 237.294021 35.807189 
L 237.733006 37.846216 
L 238.17199 41.286089 
L 239.049959 51.273068 
L 239.927928 62.202103 
L 240.366912 66.540767 
L 240.805897 69.366773 
L 241.244881 70.245894 
L 241.683866 68.927441 
L 242.12285 65.38693 
L 242.561835 59.845216 
L 243.439803 44.790329 
L 244.317772 29.440257 
L 244.756757 23.730916 
L 245.195741 20.291916 
L 245.634726 19.597478 
L 246.07371 21.845795 
L 246.512695 26.924991 
L 247.390663 43.612875 
L 248.707617 71.974958 
L 249.146601 78.380661 
L 249.585586 81.924415 
L 250.02457 82.189141 
L 250.463554 79.099263 
L 250.902539 72.933735 
L 251.780508 54.069396 
L 253.097461 24.422787 
L 253.536446 18.257258 
L 253.97543 15.16738 
L 254.414414 15.432107 
L 254.853399 18.975861 
L 255.292383 25.381564 
L 256.170352 43.736543 
L 257.048321 62.943487 
L 257.487305 70.43153 
L 257.92629 75.510727 
L 258.365274 77.759043 
L 258.804259 77.064606 
L 259.243243 73.625605 
L 259.682228 67.916265 
L 261.87715 31.969592 
L 262.316134 28.429081 
L 262.755119 27.110628 
L 263.194103 27.989749 
L 263.633088 30.815755 
L 264.511057 40.447824 
L 265.82801 56.070432 
L 266.266994 59.510306 
L 266.705979 61.549332 
L 267.144963 62.121741 
L 267.583948 61.321442 
L 268.022932 59.376241 
L 268.900901 53.396036 
L 269.77887 47.106403 
L 270.217854 44.644471 
L 270.656839 42.909189 
L 271.095823 41.981283 
L 271.534808 41.845178 
L 271.973792 42.403131 
L 272.412776 43.496911 
L 274.607699 50.413691 
L 275.046683 51.086282 
L 275.485667 51.391848 
L 275.924652 51.364809 
L 276.363636 51.07022 
L 277.241605 50.01496 
L 278.119574 48.885558 
L 278.997543 48.134809 
L 279.436527 47.954742 
L 280.314496 47.936448 
L 281.63145 48.357667 
L 282.948403 48.726573 
L 284.265356 48.811776 
L 290.850123 48.677786 
L 306.214578 48.607175 
L 308.4095 48.581237 
L 309.726454 48.876375 
L 311.482391 49.434705 
L 312.36036 49.376031 
L 312.799345 49.169912 
L 313.677314 48.370048 
L 315.433251 46.209807 
L 315.872236 45.962479 
L 316.31122 45.997559 
L 316.750205 46.374967 
L 317.189189 47.12159 
L 318.067158 49.606667 
L 319.384111 54.112255 
L 319.823096 55.11358 
L 320.26208 55.5438 
L 320.701065 55.254799 
L 321.140049 54.163727 
L 321.579034 52.273436 
L 322.457002 46.59769 
L 323.773956 37.514152 
L 324.21294 35.774489 
L 324.651925 35.234305 
L 325.090909 36.097359 
L 325.529894 38.427202 
L 325.968878 42.124458 
L 326.846847 52.398145 
L 327.724816 63.165306 
L 328.1638 67.243075 
L 328.602785 69.709344 
L 329.041769 70.162248 
L 329.480753 68.393601 
L 329.919738 64.427295 
L 330.797707 51.213038 
L 332.11466 28.147315 
L 332.553645 22.842772 
L 332.992629 19.922836 
L 333.431613 19.810731 
L 333.870598 22.644322 
L 334.309582 28.248577 
L 335.187551 45.581331 
L 336.504505 73.454675 
L 336.943489 79.336328 
L 337.382473 82.247217 
L 337.821458 81.835662 
L 338.260442 78.097209 
L 338.699427 71.379801 
L 339.577396 51.921878 
L 340.455364 31.171259 
L 340.894349 22.968455 
L 341.333333 17.379296 
L 341.772318 14.949237 
L 342.211302 15.887179 
L 342.650287 20.046951 
L 343.089271 26.948111 
L 345.284193 71.657868 
L 345.723178 76.195011 
L 346.162162 77.853579 
L 346.601147 76.584849 
L 347.040131 72.645956 
L 347.9181 59.046308 
L 349.235053 36.261645 
L 349.674038 31.090776 
L 350.113022 27.98492 
L 350.552007 27.115619 
L 350.990991 28.41079 
L 351.429975 31.578969 
L 352.307944 41.567332 
L 353.185913 52.461918 
L 353.624898 56.861627 
L 354.063882 60.034711 
L 354.502867 61.780319 
L 354.941851 62.065924 
L 355.380835 61.014746 
L 355.81982 58.877095 
L 357.136773 49.480906 
L 358.014742 44.235248 
L 358.453726 42.658192 
L 358.892711 41.892782 
L 359.331695 41.905593 
L 359.77068 42.584865 
L 360.648649 45.24417 
L 361.965602 49.614581 
L 362.404586 50.577898 
L 362.843571 51.176194 
L 363.282555 51.411329 
L 363.72154 51.324817 
L 364.160524 50.986323 
L 365.477477 49.310341 
L 366.355446 48.374059 
L 367.233415 47.93389 
L 368.111384 47.953878 
L 371.62326 48.812379 
L 374.257166 48.694078 
L 378.208026 48.677202 
L 394.011466 48.601643 
L 395.767404 48.553271 
L 397.084357 48.768768 
L 399.279279 49.44629 
L 400.157248 49.345252 
L 400.596233 49.112755 
L 401.474201 48.265374 
L 403.230139 46.141418 
L 403.669124 45.944607 
L 404.108108 46.044243 
L 404.547093 46.494604 
L 404.986077 47.314618 
L 405.864046 49.908789 
L 407.180999 54.349538 
L 407.619984 55.250797 
L 408.058968 55.547277 
L 408.497952 55.101999 
L 408.936937 53.847835 
L 409.375921 51.806563 
L 410.25389 45.944517 
L 411.131859 39.565016 
L 411.570844 37.083881 
L 412.009828 35.562215 
L 412.448812 35.290414 
L 412.887797 36.446729 
L 413.326781 39.063431 
L 413.765766 43.007324 
L 415.960688 67.880481 
L 416.399672 69.970753 
L 416.838657 69.988987 
L 417.277641 67.771055 
L 417.716626 63.389792 
L 418.594595 49.636106 
L 419.911548 26.924198 
L 420.350532 22.05075 
L 420.789517 19.666996 
L 421.228501 20.142828 
L 421.667486 23.55467 
L 422.10647 29.664608 
L 422.984439 47.574463 
L 423.862408 67.042558 
L 424.301392 74.841045 
L 424.740377 80.172178 
L 425.179361 82.435994 
L 425.618346 81.347962 
L 426.05733 76.974963 
L 426.496314 69.732554 
L 427.374283 49.760958 
L 428.252252 29.357837 
L 428.691237 21.61958 
L 429.130221 16.628791 
L 429.569206 14.866966 
L 430.00819 16.47221 
L 430.447174 21.228596 
L 431.325143 37.767089 
L 432.642097 66.188667 
L 433.081081 72.782604 
L 433.520066 76.763136 
L 433.95905 77.83003 
L 434.398034 75.997423 
L 434.837019 71.579767 
L 435.714988 57.444749 
L 437.031941 35.078768 
L 437.470925 30.295343 
L 437.90991 27.631012 
L 438.348894 27.2079 
L 438.787879 28.907311 
L 439.226863 32.398893 
L 440.104832 42.695521 
L 440.982801 53.42476 
L 441.421785 57.603231 
L 441.86077 60.501469 
L 442.299754 61.952401 
L 442.738739 61.956224 
L 443.177723 60.66431 
L 443.616708 58.347854 
L 445.81163 43.856385 
L 446.250614 42.439966 
L 446.689599 41.835664 
L 447.128583 41.992845 
L 447.567568 42.78666 
L 448.445536 45.558815 
L 449.323505 48.610264 
L 449.76249 49.834972 
L 450.201474 50.727349 
L 450.640459 51.251451 
L 451.079443 51.417854 
L 451.518428 51.274697 
L 451.957412 50.895734 
L 454.152334 48.306264 
L 454.591319 48.047193 
L 455.469287 47.901934 
L 456.347256 48.103406 
L 458.103194 48.675401 
L 459.420147 48.813471 
L 471.272727 48.678261 
L 471.272727 48.678261 
" clip-path="url(#pa87c56c506)" style="fill: none; stroke: #000000; stroke-width: 0.6; stroke-linecap: square"/>
   </g>
   <g id="line2d_2">
    <path d="M 32.727273 48.678261 
L 43.701884 48.569491 
L 46.33579 48.314782 
L 48.530713 47.858916 
L 50.28665 47.250802 
L 52.042588 46.356885 
L 53.359541 45.462743 
L 54.676495 44.353577 
L 55.993448 43.015052 
L 57.749386 40.864291 
L 59.505324 38.308976 
L 61.700246 34.6232 
L 64.773137 28.88081 
L 68.285012 22.363518 
L 70.04095 19.516074 
L 71.357903 17.695965 
L 72.674857 16.21451 
L 73.99181 15.122405 
L 74.869779 14.630005 
L 75.747748 14.335569 
L 76.625717 14.243734 
L 77.503686 14.355948 
L 78.381654 14.670441 
L 79.259623 15.182262 
L 80.576577 16.301658 
L 81.89353 17.807394 
L 83.210483 19.648014 
L 84.966421 22.515986 
L 87.600328 27.369308 
L 91.990172 35.550386 
L 94.185094 39.11588 
L 95.941032 41.553245 
L 97.69697 43.578584 
L 99.452907 45.18871 
L 101.208845 46.409325 
L 102.964783 47.287468 
L 104.720721 47.882971 
L 106.476658 48.260058 
L 108.671581 48.516992 
L 112.183456 48.657213 
L 121.841114 48.67826 
L 131.059787 48.58789 
L 133.693694 48.36371 
L 135.888616 47.951895 
L 137.644554 47.393253 
L 139.400491 46.561519 
L 140.717445 45.721451 
L 142.034398 44.67132 
L 143.351351 43.39493 
L 145.107289 41.327713 
L 146.863227 38.85061 
L 148.619165 36.004739 
L 151.253071 31.224471 
L 156.0819 22.211879 
L 157.837838 19.385372 
L 159.154791 17.586044 
L 160.471744 16.129096 
L 161.788698 15.064454 
L 162.666667 14.591552 
L 163.544636 14.31722 
L 164.422604 14.245777 
L 165.300573 14.378352 
L 166.178542 14.712852 
L 167.056511 15.244015 
L 168.373464 16.390529 
L 169.690418 17.920316 
L 171.007371 19.781172 
L 172.763309 22.669262 
L 175.397215 27.536856 
L 179.78706 35.702552 
L 181.981982 39.247103 
L 183.73792 41.664457 
L 185.493857 43.668843 
L 187.249795 45.258673 
L 189.005733 46.460906 
L 190.761671 47.323426 
L 192.517609 47.90648 
L 194.273546 48.274307 
L 196.468468 48.523667 
L 199.980344 48.658484 
L 210.515971 48.678248 
L 218.856675 48.583545 
L 221.490581 48.351997 
L 223.685504 47.929452 
L 225.441441 47.358685 
L 227.197379 46.511635 
L 228.514333 45.658192 
L 229.831286 44.593406 
L 231.148239 43.301534 
L 232.904177 41.213398 
L 234.660115 38.716577 
L 236.416052 35.854007 
L 239.049959 31.058291 
L 243.878788 22.061091 
L 245.634726 19.255926 
L 246.951679 17.477649 
L 248.268632 16.045431 
L 249.585586 15.008416 
L 250.463554 14.555088 
L 251.341523 14.300902 
L 252.219492 14.249863 
L 253.097461 14.402777 
L 253.97543 14.757232 
L 254.853399 15.307653 
L 256.170352 16.481107 
L 257.487305 18.034712 
L 258.804259 19.915529 
L 260.560197 22.823324 
L 263.194103 27.704551 
L 267.144963 35.089756 
L 269.339885 38.716577 
L 271.095823 41.213398 
L 272.851761 43.301534 
L 274.607699 44.972932 
L 276.363636 46.249402 
L 278.119574 47.175315 
L 279.875512 47.809138 
L 281.63145 48.214935 
L 283.826372 48.495572 
L 286.899263 48.644434 
L 293.923014 48.678257 
L 306.653563 48.579034 
L 309.287469 48.339943 
L 311.482391 47.90648 
L 313.238329 47.323426 
L 314.994267 46.460906 
L 316.31122 45.593991 
L 317.628174 44.51448 
L 318.945127 43.207089 
L 320.701065 41.098054 
L 322.457002 38.581622 
L 324.651925 34.934877 
L 327.285831 30.056337 
L 331.236691 22.669262 
L 332.992629 19.781172 
L 334.309582 17.920316 
L 335.626536 16.390529 
L 336.943489 15.244015 
L 337.821458 14.712852 
L 338.699427 14.378352 
L 339.577396 14.245777 
L 340.455364 14.31722 
L 341.333333 14.591552 
L 342.211302 15.064454 
L 343.089271 15.728508 
L 344.406224 17.059649 
L 345.723178 18.75109 
L 347.479115 21.466864 
L 349.674038 25.377799 
L 355.81982 36.747147 
L 357.575758 39.506689 
L 359.331695 41.883758 
L 361.087633 43.846238 
L 362.843571 45.395685 
L 364.599509 46.561519 
L 366.355446 47.393253 
L 368.111384 47.951895 
L 370.306306 48.36371 
L 372.940213 48.58789 
L 377.330057 48.674202 
L 393.133497 48.628621 
L 396.206388 48.436713 
L 398.40131 48.094841 
L 400.157248 47.616545 
L 401.913186 46.887664 
L 403.230139 46.138401 
L 404.547093 45.18871 
L 405.864046 44.019479 
L 407.619984 42.098886 
L 409.375921 39.762419 
L 411.131859 37.038645 
L 413.326781 33.191753 
L 420.350532 20.325595 
L 422.10647 17.807394 
L 423.423423 16.301658 
L 424.740377 15.182262 
L 425.618346 14.670441 
L 426.496314 14.355948 
L 427.374283 14.243734 
L 428.252252 14.335569 
L 429.130221 14.630005 
L 430.00819 15.122405 
L 430.886159 15.805054 
L 432.203112 17.16178 
L 433.520066 18.875319 
L 435.276003 21.61404 
L 437.470925 25.541949 
L 443.616708 36.893298 
L 445.372645 39.635039 
L 447.128583 41.991845 
L 448.884521 43.933376 
L 450.640459 45.462743 
L 452.396396 46.610566 
L 454.152334 47.427137 
L 455.908272 47.973817 
L 458.103194 48.375089 
L 460.737101 48.592073 
L 465.126945 48.674528 
L 471.272727 48.678261 
L 471.272727 48.678261 
" clip-path="url(#pa87c56c506)" style="fill: none; stroke-dasharray: 2.96,1.28; stroke-dashoffset: 0; stroke: #808080; stroke-width: 0.8"/>
   </g>
   <g id="line2d_3">
    <path d="M 32.727273 48.678261 
L 43.701884 48.78703 
L 46.33579 49.04174 
L 48.530713 49.497606 
L 50.28665 50.10572 
L 52.042588 50.999637 
L 53.359541 51.893779 
L 54.676495 53.002945 
L 55.993448 54.34147 
L 57.749386 56.492231 
L 59.505324 59.047546 
L 61.700246 62.733322 
L 64.773137 68.475712 
L 68.285012 74.993004 
L 70.04095 77.840448 
L 71.357903 79.660557 
L 72.674857 81.142012 
L 73.99181 82.234116 
L 74.869779 82.726516 
L 75.747748 83.020952 
L 76.625717 83.112788 
L 77.503686 83.000574 
L 78.381654 82.686081 
L 79.259623 82.174259 
L 80.576577 81.054863 
L 81.89353 79.549128 
L 83.210483 77.708508 
L 84.966421 74.840536 
L 87.600328 69.987214 
L 91.990172 61.806136 
L 94.185094 58.240641 
L 95.941032 55.803276 
L 97.69697 53.777938 
L 99.452907 52.167812 
L 101.208845 50.947197 
L 102.964783 50.069054 
L 104.720721 49.473551 
L 106.476658 49.096464 
L 108.671581 48.83953 
L 112.183456 48.699309 
L 121.841114 48.678261 
L 131.059787 48.768632 
L 133.693694 48.992811 
L 135.888616 49.404627 
L 137.644554 49.963269 
L 139.400491 50.795003 
L 140.717445 51.635071 
L 142.034398 52.685201 
L 143.351351 53.961592 
L 145.107289 56.028808 
L 146.863227 58.505912 
L 148.619165 61.351782 
L 151.253071 66.132051 
L 156.0819 75.144642 
L 157.837838 77.97115 
L 159.154791 79.770478 
L 160.471744 81.227426 
L 161.788698 82.292068 
L 162.666667 82.764969 
L 163.544636 83.039302 
L 164.422604 83.110745 
L 165.300573 82.97817 
L 166.178542 82.64367 
L 167.056511 82.112507 
L 168.373464 80.965993 
L 169.690418 79.436206 
L 171.007371 77.575349 
L 172.763309 74.68726 
L 175.397215 69.819666 
L 179.78706 61.65397 
L 181.981982 58.109419 
L 183.73792 55.692065 
L 185.493857 53.687678 
L 187.249795 52.097849 
L 189.005733 50.895616 
L 190.761671 50.033096 
L 192.517609 49.450041 
L 194.273546 49.082215 
L 196.468468 48.832855 
L 199.980344 48.698037 
L 210.515971 48.678274 
L 218.856675 48.772976 
L 221.490581 49.004525 
L 223.685504 49.427069 
L 225.441441 49.997837 
L 227.197379 50.844887 
L 228.514333 51.69833 
L 229.831286 52.763115 
L 231.148239 54.054988 
L 232.904177 56.143124 
L 234.660115 58.639945 
L 236.416052 61.502515 
L 239.049959 66.298231 
L 243.878788 75.295431 
L 245.634726 78.100596 
L 246.951679 79.878873 
L 248.268632 81.311091 
L 249.585586 82.348106 
L 250.463554 82.801434 
L 251.341523 83.05562 
L 252.219492 83.106659 
L 253.097461 82.953745 
L 253.97543 82.59929 
L 254.853399 82.048869 
L 256.170352 80.875415 
L 257.487305 79.321809 
L 258.804259 77.440993 
L 260.560197 74.533197 
L 263.194103 69.65197 
L 267.144963 62.266766 
L 269.339885 58.639945 
L 271.095823 56.143124 
L 272.851761 54.054988 
L 274.607699 52.38359 
L 276.363636 51.10712 
L 278.119574 50.181206 
L 279.875512 49.547384 
L 281.63145 49.141587 
L 283.826372 48.860949 
L 286.899263 48.712088 
L 293.923014 48.678265 
L 306.653563 48.777488 
L 309.287469 49.016579 
L 311.482391 49.450041 
L 313.238329 50.033096 
L 314.994267 50.895616 
L 316.31122 51.762531 
L 317.628174 52.842042 
L 318.945127 54.149433 
L 320.701065 56.258468 
L 322.457002 58.7749 
L 324.651925 62.421644 
L 327.285831 67.300184 
L 331.236691 74.68726 
L 332.992629 77.575349 
L 334.309582 79.436206 
L 335.626536 80.965993 
L 336.943489 82.112507 
L 337.821458 82.64367 
L 338.699427 82.97817 
L 339.577396 83.110745 
L 340.455364 83.039302 
L 341.333333 82.764969 
L 342.211302 82.292068 
L 343.089271 81.628013 
L 344.406224 80.296873 
L 345.723178 78.605432 
L 347.479115 75.889657 
L 349.674038 71.978723 
L 355.81982 60.609374 
L 357.575758 57.849833 
L 359.331695 55.472763 
L 361.087633 53.510284 
L 362.843571 51.960837 
L 364.599509 50.795003 
L 366.355446 49.963269 
L 368.111384 49.404627 
L 370.306306 48.992811 
L 372.940213 48.768632 
L 377.330057 48.682319 
L 393.133497 48.727901 
L 396.206388 48.919808 
L 398.40131 49.261681 
L 400.157248 49.739976 
L 401.913186 50.468858 
L 403.230139 51.218121 
L 404.547093 52.167812 
L 405.864046 53.337043 
L 407.619984 55.257636 
L 409.375921 57.594102 
L 411.131859 60.317877 
L 413.326781 64.164769 
L 420.350532 77.030927 
L 422.10647 79.549128 
L 423.423423 81.054863 
L 424.740377 82.174259 
L 425.618346 82.686081 
L 426.496314 83.000574 
L 427.374283 83.112788 
L 428.252252 83.020952 
L 429.130221 82.726516 
L 430.00819 82.234116 
L 430.886159 81.551468 
L 432.203112 80.194742 
L 433.520066 78.481202 
L 435.276003 75.742482 
L 437.470925 71.814573 
L 443.616708 60.463224 
L 445.372645 57.721483 
L 447.128583 55.364677 
L 448.884521 53.423145 
L 450.640459 51.893779 
L 452.396396 50.745956 
L 454.152334 49.929385 
L 455.908272 49.382705 
L 458.103194 48.981433 
L 460.737101 48.764449 
L 465.126945 48.681993 
L 471.272727 48.678261 
L 471.272727 48.678261 
" clip-path="url(#pa87c56c506)" style="fill: none; stroke-dasharray: 2.96,1.28; stroke-dashoffset: 0; stroke: #808080; stroke-width: 0.8"/>
   </g>
   <g id="text_1">
    <!-- $1/f_b$ -->
    <g transform="translate(111.436364 79.669565) scale(0.1 -0.1)">
     <defs>
      <path id="DejaVuSans-31" d="M 794 531 
L 1825 531 
L 1825 4091 
L 703 3866 
L 703 4441 
L 1819 4666 
L 2450 4666 
L 2450 531 
L 3481 531 
L 3481 0 
L 794 0 
L 794 531 
z
" transform="scale(0.015625)"/>
      <path id="DejaVuSans-2f" d="M 1625 4666 
L 2156 4666 
L 531 -594 
L 0 -594 
L 1625 4666 
z
" transform="scale(0.015625)"/>
      <path id="DejaVuSans-Oblique-66" d="M 3059 4863 
L 2969 4384 
L 2419 4384 
Q 2106 4384 1964 4261 
Q 1822 4138 1753 3809 
L 1691 3500 
L 2638 3500 
L 2553 3053 
L 1606 3053 
L 1013 0 
L 434 0 
L 1031 3053 
L 481 3053 
L 563 3500 
L 1113 3500 
L 1159 3744 
Q 1278 4363 1576 4613 
Q 1875 4863 2516 4863 
L 3059 4863 
z
" transform="scale(0.015625)"/>
      <path id="DejaVuSans-Oblique-62" d="M 3169 2138 
Q 3169 2591 2961 2847 
Q 2753 3103 2388 3103 
Q 2122 3103 1889 2973 
Q 1656 2844 1484 2597 
Q 1303 2338 1198 1995 
Q 1094 1653 1094 1313 
Q 1094 881 1298 636 
Q 1503 391 1863 391 
Q 2134 391 2365 517 
Q 2597 644 2772 891 
Q 2950 1147 3059 1487 
Q 3169 1828 3169 2138 
z
M 1381 2969 
Q 1594 3256 1914 3420 
Q 2234 3584 2584 3584 
Q 3122 3584 3439 3221 
Q 3756 2859 3756 2241 
Q 3756 1734 3570 1259 
Q 3384 784 3041 416 
Q 2816 172 2522 40 
Q 2228 -91 1906 -91 
Q 1566 -91 1316 65 
Q 1066 222 909 531 
L 806 0 
L 231 0 
L 1178 4863 
L 1753 4863 
L 1381 2969 
z
" transform="scale(0.015625)"/>
     </defs>
     <use xlink:href="#DejaVuSans-31" transform="translate(0 0.015625)"/>
     <use xlink:href="#DejaVuSans-2f" transform="translate(63.623047 0.015625)"/>
     <use xlink:href="#DejaVuSans-Oblique-66" transform="translate(97.314453 0.015625)"/>
     <use xlink:href="#DejaVuSans-Oblique-62" transform="translate(132.519531 -16.390625) scale(0.7)"/>
    </g>
   </g>
   <g id="text_2">
    <!-- $1/f_n$ -->
    <g transform="translate(304.396364 79.669565) scale(0.1 -0.1)">
     <defs>
      <path id="DejaVuSans-Oblique-6e" d="M 3566 2113 
L 3156 0 
L 2578 0 
L 2988 2091 
Q 3016 2238 3031 2350 
Q 3047 2463 3047 2528 
Q 3047 2791 2881 2937 
Q 2716 3084 2419 3084 
Q 1956 3084 1622 2776 
Q 1288 2469 1184 1941 
L 800 0 
L 225 0 
L 903 3500 
L 1478 3500 
L 1363 2950 
Q 1603 3253 1940 3418 
Q 2278 3584 2650 3584 
Q 3113 3584 3367 3334 
Q 3622 3084 3622 2631 
Q 3622 2519 3608 2391 
Q 3594 2263 3566 2113 
z
" transform="scale(0.015625)"/>
     </defs>
     <use xlink:href="#DejaVuSans-31" transform="translate(0 0.015625)"/>
     <use xlink:href="#DejaVuSans-2f" transform="translate(63.623047 0.015625)"/>
     <use xlink:href="#DejaVuSans-Oblique-66" transform="translate(97.314453 0.015625)"/>
     <use xlink:href="#DejaVuSans-Oblique-6e" transform="translate(132.519531 -16.390625) scale(0.7)"/>
    </g>
   </g>
  </g>
 </g>
 <defs>
  <clipPath id="pa87c56c506">
   <rect x="10.8" y="10.8" width="482.4" height="79.2"/>
  </clipPath>
 </defs>
</svg>
