<?xml version="1.0" encoding="utf-8" standalone="no"?>
<!DOCTYPE svg PUBLIC "-//W3C//DTD SVG 1.1//EN"
  "http://www.w3.org/Graphics/SVG/1.1/DTD/svg11.dtd">
<svg xmlns:xlink="http://www.w3.org/1999/xlink" width="504pt" height="234pt" viewBox="0 0 504 234" xmlns="http://www.w3.org/2000/svg" version="1.1">
 <metadata>
  <rdf:RDF xmlns:dc="http://purl.org/dc/elements/1.1/" xmlns:cc="http://creativecommons.org/ns#" xmlns:rdf="http://www.w3.org/1999/02/22-rdf-syntax-ns#">
   <cc:Work>
    <dc:type rdf:resource="http://purl.org/dc/dcmitype/StillImage"/>
    <dc:date>2024-02-28T21:14:57.937270</dc:date>
    <dc:format>image/svg+xml</dc:format>
    <dc:creator>
     <cc:Agent>
      <dc:title>Matplotlib v3.8.2, https://matplotlib.org/</dc:title>
     </cc:Agent>
    </dc:creator>
   </cc:Work>
  </rdf:RDF>
 </metadata>
 <defs>
  <style type="text/css">*{stroke-linejoin: round; stroke-linecap: butt}</style>
 </defs>
 <g id="figure_1">
  <g id="patch_1">
   <path d="M 0 234 
L 504 234 
L 504 0 
L 0 0 
L 0 234 
z
" style="fill: none"/>
  </g>
  <g id="axes_1">
   <g id="line2d_1">
    <path d="M 19.570909 39.763636 
L 33.487418 39.658379 
L 35.826327 39.246348 
L 37.989818 38.91902 
L 39.1008 38.975608 
L 40.036364 39.235083 
L 40.971927 39.72672 
L 42.024436 40.553439 
L 43.6032 42.13898 
L 44.948073 43.37942 
L 45.708218 43.811486 
L 46.351418 43.927298 
L 46.877673 43.812295 
L 47.4624 43.43641 
L 48.047127 42.786685 
L 48.7488 41.653075 
L 49.625891 39.764329 
L 51.087709 35.952737 
L 52.432582 32.680241 
L 53.192727 31.367926 
L 53.777455 30.765533 
L 54.245236 30.582903 
L 54.654545 30.658346 
L 55.063855 30.960142 
L 55.531636 31.581764 
L 56.116364 32.756901 
L 56.818036 34.689264 
L 57.812073 38.164869 
L 60.618764 48.456845 
L 61.378909 50.234674 
L 61.963636 51.069364 
L 62.431418 51.366455 
L 62.840727 51.344834 
L 63.250036 51.058738 
L 63.717818 50.414657 
L 64.302545 49.160896 
L 65.004218 47.075307 
L 65.939782 43.54158 
L 69.155782 30.709969 
L 69.857455 28.987843 
L 70.442182 28.087374 
L 70.909964 27.748702 
L 71.319273 27.740144 
L 71.728582 28.000689 
L 72.196364 28.620257 
L 72.781091 29.849557 
L 73.482764 31.914866 
L 74.418327 35.440086 
L 77.809745 49.008581 
L 78.511418 50.673397 
L 79.096145 51.519232 
L 79.563927 51.812061 
L 79.914764 51.801332 
L 80.324073 51.539315 
L 80.791855 50.918523 
L 81.376582 49.688334 
L 82.078255 47.622705 
L 83.013818 44.097968 
L 86.405236 30.551924 
L 87.106909 28.900644 
L 87.633164 28.128201 
L 88.100945 27.804018 
L 88.451782 27.791069 
L 88.861091 28.02548 
L 89.328873 28.614771 
L 89.855127 29.66483 
L 90.5568 31.631465 
L 91.492364 35.035577 
L 94.883782 48.182045 
L 95.585455 49.757659 
L 96.111709 50.483262 
L 96.579491 50.778069 
L 96.9888 50.761711 
L 97.398109 50.493519 
L 97.865891 49.892592 
L 98.450618 48.738703 
L 99.210764 46.682619 
L 100.380218 42.740805 
L 102.251345 36.42556 
L 103.128436 34.245788 
L 103.771636 33.157498 
L 104.356364 32.582683 
L 104.824145 32.409834 
L 105.291927 32.481764 
L 105.759709 32.779302 
L 106.344436 33.426889 
L 107.104582 34.623255 
L 108.507927 37.354889 
L 109.911273 39.91772 
L 110.788364 41.104398 
L 111.548509 41.791364 
L 112.250182 42.138819 
L 112.951855 42.235049 
L 113.712 42.105092 
L 114.706036 41.678519 
L 118.682182 39.68322 
L 119.968582 39.445611 
L 121.488873 39.413004 
L 124.587927 39.651644 
L 127.803927 39.774735 
L 136.457891 39.763636 
L 136.457891 39.763636 
" clip-path="url(#p62e7c4f153)" style="fill: none; stroke: #000000; stroke-width: 0.5; stroke-linecap: square"/>
   </g>
   <g id="line2d_2">
    <path d="M 78.043636 63.9 
L 89.504291 63.789854 
L 92.077091 63.844171 
L 93.831273 64.107768 
L 95.936291 64.679553 
L 97.748945 65.10936 
L 98.742982 65.132575 
L 99.620073 64.93313 
L 100.438691 64.516894 
L 101.315782 63.808563 
L 102.368291 62.641083 
L 105.291927 59.156411 
L 105.935127 58.795762 
L 106.461382 58.723487 
L 106.987636 58.883216 
L 107.513891 59.293736 
L 108.098618 60.051507 
L 108.800291 61.362684 
L 109.677382 63.523453 
L 111.256145 68.166237 
L 112.484073 71.459935 
L 113.244218 72.919383 
L 113.828945 73.601122 
L 114.296727 73.826437 
L 114.706036 73.774016 
L 115.115345 73.482841 
L 115.583127 72.859551 
L 116.167855 71.6641 
L 116.869527 69.684855 
L 117.863564 66.109655 
L 120.7872 55.05869 
L 121.488873 53.36945 
L 122.0736 52.478916 
L 122.541382 52.14038 
L 122.950691 52.128175 
L 123.36 52.38288 
L 123.827782 52.994362 
L 124.354036 54.069667 
L 125.055709 56.073147 
L 125.991273 59.53749 
L 129.499636 73.409706 
L 130.201309 74.981778 
L 130.727564 75.689086 
L 131.136873 75.939256 
L 131.487709 75.93956 
L 131.897018 75.690084 
L 132.3648 75.082889 
L 132.891055 74.0111 
L 133.592727 72.010671 
L 134.528291 68.54602 
L 138.095127 54.386868 
L 138.7968 52.815137 
L 139.323055 52.108124 
L 139.732364 51.858068 
L 140.0832 51.857762 
L 140.492509 52.107124 
L 140.960291 52.714077 
L 141.486545 53.785495 
L 142.188218 55.785248 
L 143.123782 59.248114 
L 146.632145 73.18921 
L 147.333818 74.789028 
L 147.860073 75.518897 
L 148.327855 75.804083 
L 148.678691 75.788028 
L 149.088 75.521069 
L 149.555782 74.8977 
L 150.140509 73.6719 
L 150.842182 71.628815 
L 151.836218 67.942606 
L 154.701382 56.76572 
L 155.461527 54.82432 
L 156.046255 53.852023 
L 156.514036 53.430623 
L 156.923345 53.328537 
L 157.332655 53.472984 
L 157.800436 53.928198 
L 158.326691 54.781762 
L 159.028364 56.400487 
L 160.0224 59.359334 
L 162.536727 67.134777 
L 163.355345 68.842416 
L 163.998545 69.714086 
L 164.5248 70.10228 
L 164.992582 70.206633 
L 165.460364 70.098801 
L 165.986618 69.750962 
L 166.688291 68.981749 
L 167.682327 67.498336 
L 170.021236 63.877178 
L 170.9568 62.896242 
L 171.775418 62.362089 
L 172.535564 62.128366 
L 173.354182 62.118106 
L 174.348218 62.35243 
L 176.043927 63.042153 
L 177.973527 63.748063 
L 179.435345 64.035222 
L 181.072582 64.119068 
L 184.054691 63.991323 
L 188.206255 63.894967 
L 194.930618 63.9 
L 194.930618 63.9 
" clip-path="url(#p62e7c4f153)" style="fill: none; stroke: #000000; stroke-width: 0.5; stroke-linecap: square"/>
   </g>
   <g id="line2d_3">
    <path d="M 136.516364 88.036364 
L 147.8016 88.146534 
L 151.309964 88.224709 
L 152.888727 88.018829 
L 154.350545 87.597809 
L 158.326691 86.267098 
L 159.145309 86.351726 
L 159.905455 86.666084 
L 160.6656 87.235967 
L 161.484218 88.135202 
L 162.536727 89.650932 
L 165.109527 93.521577 
L 165.8112 94.103312 
L 166.337455 94.277778 
L 166.805236 94.213808 
L 167.273018 93.927194 
L 167.799273 93.33006 
L 168.442473 92.212579 
L 169.202618 90.396243 
L 170.255127 87.230094 
L 172.535564 80.167779 
L 173.295709 78.563123 
L 173.880436 77.795406 
L 174.348218 77.51707 
L 174.757527 77.534048 
L 175.166836 77.799429 
L 175.634618 78.404299 
L 176.219345 79.592064 
L 176.921018 81.582684 
L 177.856582 84.976705 
L 181.014109 97.12974 
L 181.715782 98.784116 
L 182.300509 99.631906 
L 182.768291 99.930263 
L 183.119127 99.924868 
L 183.528436 99.669541 
L 183.996218 99.056234 
L 184.522473 97.977974 
L 185.224145 95.96972 
L 186.159709 92.498029 
L 189.668073 78.573571 
L 190.369745 76.983698 
L 190.896 76.261698 
L 191.305309 75.999566 
L 191.656145 75.988818 
L 192.065455 76.226105 
L 192.533236 76.81969 
L 193.059491 77.877073 
L 193.761164 79.860749 
L 194.638255 83.073268 
L 196.275491 90.130033 
L 197.620364 95.490051 
L 198.438982 97.955204 
L 199.082182 99.282066 
L 199.608436 99.909564 
L 200.017745 100.09531 
L 200.368582 100.039978 
L 200.777891 99.726412 
L 201.245673 99.048839 
L 201.8304 97.753537 
L 202.532073 95.622929 
L 203.526109 91.799143 
L 206.508218 79.709106 
L 207.268364 77.714433 
L 207.853091 76.725727 
L 208.320873 76.311322 
L 208.730182 76.233522 
L 209.081018 76.379274 
L 209.490327 76.792534 
L 210.016582 77.690786 
L 210.659782 79.295541 
L 211.4784 81.992392 
L 212.823273 87.331145 
L 214.402036 93.387742 
L 215.279127 95.914159 
L 215.922327 97.177992 
L 216.448582 97.790377 
L 216.916364 98.003088 
L 217.325673 97.934558 
L 217.734982 97.637028 
L 218.261236 96.942198 
L 218.904436 95.678325 
L 219.781527 93.406794 
L 222.822109 85.025002 
L 223.582255 83.750531 
L 224.225455 83.087346 
L 224.751709 82.830553 
L 225.277964 82.816526 
L 225.804218 83.019974 
L 226.447418 83.513969 
L 227.324509 84.495697 
L 230.423564 88.245296 
L 231.300655 88.863343 
L 232.177745 89.208335 
L 233.054836 89.311255 
L 234.107345 89.195245 
L 235.744582 88.750068 
L 238.141964 88.135374 
L 239.896145 87.937815 
L 242.176582 87.928062 
L 250.245818 88.036875 
L 253.403345 88.036364 
L 253.403345 88.036364 
" clip-path="url(#p62e7c4f153)" style="fill: none; stroke: #000000; stroke-width: 0.5; stroke-linecap: square"/>
   </g>
   <g id="line2d_4">
    <path d="M 194.989091 112.172727 
L 206.859055 112.062247 
L 211.302982 111.851552 
L 212.647855 112.074251 
L 213.875782 112.506285 
L 215.3376 113.272338 
L 217.501091 114.409298 
L 218.378182 114.599922 
L 219.079855 114.532374 
L 219.723055 114.25725 
L 220.424727 113.699024 
L 221.184873 112.786487 
L 222.120436 111.27607 
L 223.874618 107.87484 
L 224.9856 106.002503 
L 225.687273 105.217919 
L 226.213527 104.917415 
L 226.681309 104.891853 
L 227.149091 105.112234 
L 227.616873 105.58699 
L 228.2016 106.534798 
L 228.903273 108.15458 
L 229.780364 110.780819 
L 233.113309 121.470059 
L 233.756509 122.588999 
L 234.282764 123.084575 
L 234.692073 123.187344 
L 235.101382 123.035137 
L 235.510691 122.62796 
L 236.036945 121.741039 
L 236.680145 120.14398 
L 237.498764 117.427955 
L 238.726691 112.443739 
L 240.597818 104.890889 
L 241.474909 102.266185 
L 242.118109 100.965789 
L 242.644364 100.357938 
L 243.053673 100.186833 
L 243.404509 100.254447 
L 243.813818 100.58209 
L 244.2816 101.27536 
L 244.866327 102.589397 
L 245.626473 104.944145 
L 246.620509 108.834757 
L 249.485673 120.540054 
L 250.245818 122.60383 
L 250.830545 123.653321 
L 251.298327 124.118452 
L 251.707636 124.240031 
L 252.058473 124.129733 
L 252.467782 123.753346 
L 252.935564 123.00736 
L 253.520291 121.634293 
L 254.280436 119.2179 
L 255.332945 115.027599 
L 257.964218 104.193391 
L 258.782836 101.882797 
L 259.426036 100.702272 
L 259.893818 100.238397 
L 260.303127 100.118291 
L 260.653964 100.230084 
L 261.063273 100.608373 
L 261.531055 101.35648 
L 262.115782 102.731429 
L 262.875927 105.146994 
L 263.928436 109.323624 
L 266.442764 119.617802 
L 267.261382 121.956039 
L 267.904582 123.167703 
L 268.372364 123.659579 
L 268.781673 123.80854 
L 269.132509 123.7254 
L 269.541818 123.386156 
L 270.0096 122.691872 
L 270.594327 121.401724 
L 271.354473 119.133834 
L 272.465455 115.020318 
L 274.570473 107.140497 
L 275.389091 104.911114 
L 276.032291 103.713248 
L 276.558545 103.138858 
L 277.026327 102.944114 
L 277.435636 103.013809 
L 277.903418 103.354201 
L 278.429673 104.039742 
L 279.131345 105.370508 
L 280.125382 107.808667 
L 282.405818 113.576768 
L 283.224436 115.03391 
L 283.926109 115.869562 
L 284.510836 116.261862 
L 285.095564 116.39018 
L 285.680291 116.28234 
L 286.381964 115.897108 
L 287.317527 115.083783 
L 290.416582 112.14615 
L 291.410618 111.61572 
L 292.346182 111.359365 
L 293.398691 111.305975 
L 294.802036 111.484619 
L 299.070545 112.178588 
L 301.5264 112.237497 
L 311.876073 112.172727 
L 311.876073 112.172727 
" clip-path="url(#p62e7c4f153)" style="fill: none; stroke: #000000; stroke-width: 0.5; stroke-linecap: square"/>
   </g>
   <g id="line2d_5">
    <path d="M 253.461818 136.309091 
L 266.208873 136.415438 
L 271.471418 136.80853 
L 272.5824 136.549803 
L 273.634909 136.077855 
L 274.862836 135.266807 
L 277.669527 133.287779 
L 278.429673 133.085601 
L 279.072873 133.146115 
L 279.6576 133.420543 
L 280.3008 133.985446 
L 281.002473 134.918925 
L 281.879564 136.50469 
L 283.165964 139.378222 
L 284.744727 142.793051 
L 285.504873 143.943072 
L 286.0896 144.45976 
L 286.557382 144.598726 
L 286.966691 144.502612 
L 287.434473 144.134316 
L 287.960727 143.390119 
L 288.603927 142.029279 
L 289.364073 139.864449 
L 290.475055 135.95381 
L 292.580073 128.462586 
L 293.398691 126.403027 
L 293.983418 125.444361 
L 294.4512 125.03096 
L 294.860509 124.942855 
L 295.269818 125.11557 
L 295.679127 125.547593 
L 296.205382 126.470573 
L 296.848582 128.114433 
L 297.6672 130.888725 
L 298.9536 136.200879 
L 300.766255 143.576432 
L 301.643345 146.224401 
L 302.286545 147.538922 
L 302.8128 148.157157 
L 303.222109 148.335838 
L 303.572945 148.274443 
L 303.982255 147.953764 
L 304.450036 147.268047 
L 305.034764 145.962677 
L 305.736436 143.820366 
L 306.730473 139.980573 
L 309.771055 127.63783 
L 310.5312 125.668761 
L 311.115927 124.703347 
L 311.583709 124.309668 
L 311.993018 124.251896 
L 312.343855 124.416719 
L 312.753164 124.855284 
L 313.279418 125.79284 
L 313.922618 127.460491 
L 314.741236 130.271528 
L 315.969164 135.401342 
L 317.898764 143.411426 
L 318.775855 146.115121 
L 319.419055 147.471849 
L 319.945309 148.125465 
L 320.354618 148.331977 
L 320.705455 148.294478 
L 321.114764 148.00152 
L 321.582545 147.347024 
L 322.167273 146.079694 
L 322.868945 143.981559 
L 323.862982 140.203451 
L 326.845091 128.280681 
L 327.605236 126.335434 
L 328.189964 125.381832 
L 328.657745 124.990937 
L 329.067055 124.928359 
L 329.476364 125.125638 
L 329.944145 125.659246 
L 330.4704 126.626194 
L 331.172073 128.440956 
L 332.107636 131.554963 
L 334.9728 141.608394 
L 335.732945 143.330295 
L 336.317673 144.188131 
L 336.843927 144.590227 
L 337.253236 144.660872 
L 337.662545 144.527784 
L 338.130327 144.143765 
L 338.715055 143.358136 
L 339.4752 141.939947 
L 340.878545 138.72639 
L 342.281891 135.70515 
L 343.158982 134.305369 
L 343.860655 133.549709 
L 344.503855 133.152392 
L 345.147055 133.020812 
L 345.790255 133.120307 
L 346.5504 133.471239 
L 347.661382 134.263813 
L 350.058764 136.039569 
L 351.169745 136.557416 
L 352.280727 136.823953 
L 353.508655 136.878285 
L 355.262836 136.706974 
L 358.946618 136.318859 
L 362.104145 136.281014 
L 370.3488 136.309091 
L 370.3488 136.309091 
" clip-path="url(#p62e7c4f153)" style="fill: none; stroke: #000000; stroke-width: 0.5; stroke-linecap: square"/>
   </g>
   <g id="line2d_6">
    <path d="M 311.934545 160.445455 
L 325.851055 160.338361 
L 328.189964 159.926922 
L 330.294982 159.606681 
L 331.405964 159.654684 
L 332.341527 159.903842 
L 333.277091 160.383529 
L 334.3296 161.197352 
L 335.849891 162.712196 
L 337.253236 164.021452 
L 338.013382 164.466866 
L 338.656582 164.59864 
L 339.241309 164.475672 
L 339.826036 164.092253 
L 340.410764 163.43535 
L 341.112436 162.294322 
L 341.989527 160.399407 
L 343.451345 156.588758 
L 344.737745 153.452246 
L 345.497891 152.113577 
L 346.082618 151.484948 
L 346.5504 151.278627 
L 346.959709 151.3321 
L 347.369018 151.611427 
L 347.8368 152.207601 
L 348.421527 153.352705 
L 349.1232 155.254014 
L 350.058764 158.479542 
L 353.099345 169.506897 
L 353.801018 171.053378 
L 354.327273 171.767606 
L 354.795055 172.050767 
L 355.145891 172.037851 
L 355.5552 171.777083 
L 356.022982 171.161016 
L 356.607709 169.939579 
L 357.309382 167.886764 
L 358.244945 164.382895 
L 361.519418 151.335648 
L 362.221091 149.631718 
L 362.805818 148.748397 
L 363.2736 148.424181 
L 363.624436 148.411304 
L 364.033745 148.646344 
L 364.501527 149.237792 
L 365.027782 150.293386 
L 365.729455 152.275643 
L 366.606545 155.487525 
L 368.243782 162.544091 
L 369.588655 167.90331 
L 370.407273 170.36792 
L 371.050473 171.694665 
L 371.576727 172.322421 
L 371.986036 172.508629 
L 372.336873 172.453871 
L 372.746182 172.141143 
L 373.213964 171.464645 
L 373.798691 170.170564 
L 374.500364 168.040487 
L 375.4944 164.213264 
L 378.534982 151.86555 
L 379.295127 149.890266 
L 379.879855 148.920622 
L 380.347636 148.524034 
L 380.756945 148.463911 
L 381.107782 148.626623 
L 381.517091 149.062186 
L 382.043345 149.993997 
L 382.686545 151.649231 
L 383.505164 154.429678 
L 384.791564 159.713989 
L 386.545745 166.755375 
L 387.422836 169.369624 
L 388.066036 170.670166 
L 388.592291 171.289618 
L 389.0016 171.480959 
L 389.410909 171.416458 
L 389.820218 171.101563 
L 390.288 170.450525 
L 390.872727 169.24125 
L 391.632873 167.12934 
L 392.8608 162.936287 
L 394.614982 157.047629 
L 395.492073 154.880964 
L 396.135273 153.804664 
L 396.661527 153.279864 
L 397.129309 153.085057 
L 397.597091 153.136586 
L 398.064873 153.416026 
L 398.6496 154.045143 
L 399.409745 155.225585 
L 400.696145 157.71834 
L 402.216436 160.538114 
L 403.152 161.811878 
L 403.912145 162.492791 
L 404.613818 162.834281 
L 405.315491 162.92476 
L 406.075636 162.789317 
L 407.069673 162.357291 
L 410.987345 160.375665 
L 412.215273 160.136008 
L 413.677091 160.087421 
L 416.249891 160.278312 
L 419.582836 160.449676 
L 426.190255 160.445654 
L 428.821527 160.445455 
L 428.821527 160.445455 
" clip-path="url(#p62e7c4f153)" style="fill: none; stroke: #000000; stroke-width: 0.5; stroke-linecap: square"/>
   </g>
   <g id="line2d_7">
    <path d="M 370.407273 184.581818 
L 381.9264 184.470797 
L 384.440727 184.527996 
L 386.194909 184.792658 
L 388.299927 185.363402 
L 390.112582 185.788421 
L 391.106618 185.807427 
L 391.983709 185.603757 
L 392.802327 185.183666 
L 393.679418 184.472013 
L 394.731927 183.302828 
L 397.655564 179.835535 
L 398.298764 179.48328 
L 398.825018 179.418666 
L 399.351273 179.586434 
L 399.877527 180.005002 
L 400.462255 180.771223 
L 401.163927 182.091061 
L 402.041018 184.258993 
L 403.678255 189.072171 
L 404.847709 192.177977 
L 405.607855 193.622043 
L 406.192582 194.289862 
L 406.660364 194.503227 
L 407.069673 194.440084 
L 407.478982 194.138227 
L 407.946764 193.503133 
L 408.531491 192.294133 
L 409.233164 190.301369 
L 410.2272 186.714113 
L 413.092364 175.853975 
L 413.852509 174.015551 
L 414.437236 173.141658 
L 414.905018 172.81723 
L 415.314327 172.817584 
L 415.723636 173.084744 
L 416.191418 173.709963 
L 416.776145 174.944388 
L 417.477818 177.013473 
L 418.413382 180.538241 
L 421.687855 193.653146 
L 422.389527 195.373798 
L 422.974255 196.272047 
L 423.442036 196.608697 
L 423.851345 196.615495 
L 424.260655 196.353313 
L 424.728436 195.732118 
L 425.313164 194.50123 
L 426.014836 192.434679 
L 426.9504 188.908701 
L 430.341818 175.339023 
L 431.043491 173.673746 
L 431.628218 172.827605 
L 432.096 172.534637 
L 432.446836 172.545339 
L 432.856145 172.807411 
L 433.323927 173.428366 
L 433.908655 174.658834 
L 434.610327 176.724678 
L 435.545891 180.248741 
L 438.878836 193.597486 
L 439.580509 195.290565 
L 440.165236 196.162093 
L 440.633018 196.476428 
L 440.983855 196.482424 
L 441.393164 196.240836 
L 441.860945 195.645262 
L 442.3872 194.591671 
L 443.088873 192.628395 
L 444.024436 189.247956 
L 447.240436 176.879871 
L 447.942109 175.23225 
L 448.526836 174.37245 
L 448.994618 174.044983 
L 449.403927 174.025207 
L 449.813236 174.249824 
L 450.281018 174.791377 
L 450.865745 175.856084 
L 451.625891 177.771033 
L 452.795345 181.445281 
L 454.608 187.119172 
L 455.485091 189.145861 
L 456.186764 190.234024 
L 456.771491 190.745282 
L 457.239273 190.896795 
L 457.707055 190.832141 
L 458.233309 190.526289 
L 458.876509 189.871905 
L 459.7536 188.62731 
L 462.677236 184.188493 
L 463.554327 183.376013 
L 464.314473 182.955262 
L 465.074618 182.780391 
L 465.893236 182.821048 
L 466.945745 183.117243 
L 471.389673 184.663251 
L 472.968436 184.798502 
L 475.248873 184.735591 
L 480.219055 184.577607 
L 487.294255 184.581818 
L 487.294255 184.581818 
" clip-path="url(#p62e7c4f153)" style="fill: none; stroke: #000000; stroke-width: 0.5; stroke-linecap: square"/>
   </g>
   <g id="LineCollection_1">
    <path d="M 36.728642 213.545455 
L 36.728642 20.454545 
" clip-path="url(#p62e7c4f153)" style="fill: none; stroke: #808080; stroke-width: 0.2"/>
   </g>
   <g id="LineCollection_2">
    <path d="M 53.925356 213.545455 
L 53.925356 20.454545 
" clip-path="url(#p62e7c4f153)" style="fill: none; stroke: #808080; stroke-width: 0.2"/>
   </g>
   <g id="LineCollection_3">
    <path d="M 71.122071 213.545455 
L 71.122071 20.454545 
" clip-path="url(#p62e7c4f153)" style="fill: none; stroke: #808080; stroke-width: 0.2"/>
   </g>
   <g id="LineCollection_4">
    <path d="M 88.318785 213.545455 
L 88.318785 20.454545 
" clip-path="url(#p62e7c4f153)" style="fill: none; stroke: #808080; stroke-width: 0.2"/>
   </g>
   <g id="LineCollection_5">
    <path d="M 105.515499 213.545455 
L 105.515499 20.454545 
" clip-path="url(#p62e7c4f153)" style="fill: none; stroke: #808080; stroke-width: 0.2"/>
   </g>
   <g id="LineCollection_6">
    <path d="M 122.712214 213.545455 
L 122.712214 20.454545 
" clip-path="url(#p62e7c4f153)" style="fill: none; stroke: #808080; stroke-width: 0.2"/>
   </g>
   <g id="LineCollection_7">
    <path d="M 139.908928 213.545455 
L 139.908928 20.454545 
" clip-path="url(#p62e7c4f153)" style="fill: none; stroke: #808080; stroke-width: 0.2"/>
   </g>
   <g id="LineCollection_8">
    <path d="M 157.105643 213.545455 
L 157.105643 20.454545 
" clip-path="url(#p62e7c4f153)" style="fill: none; stroke: #808080; stroke-width: 0.2"/>
   </g>
   <g id="LineCollection_9">
    <path d="M 174.302357 213.545455 
L 174.302357 20.454545 
" clip-path="url(#p62e7c4f153)" style="fill: none; stroke: #808080; stroke-width: 0.2"/>
   </g>
   <g id="LineCollection_10">
    <path d="M 191.499072 213.545455 
L 191.499072 20.454545 
" clip-path="url(#p62e7c4f153)" style="fill: none; stroke: #808080; stroke-width: 0.2"/>
   </g>
   <g id="LineCollection_11">
    <path d="M 208.695786 213.545455 
L 208.695786 20.454545 
" clip-path="url(#p62e7c4f153)" style="fill: none; stroke: #808080; stroke-width: 0.2"/>
   </g>
   <g id="LineCollection_12">
    <path d="M 225.892501 213.545455 
L 225.892501 20.454545 
" clip-path="url(#p62e7c4f153)" style="fill: none; stroke: #808080; stroke-width: 0.2"/>
   </g>
   <g id="LineCollection_13">
    <path d="M 243.089215 213.545455 
L 243.089215 20.454545 
" clip-path="url(#p62e7c4f153)" style="fill: none; stroke: #808080; stroke-width: 0.2"/>
   </g>
   <g id="LineCollection_14">
    <path d="M 260.285929 213.545455 
L 260.285929 20.454545 
" clip-path="url(#p62e7c4f153)" style="fill: none; stroke: #808080; stroke-width: 0.2"/>
   </g>
   <g id="LineCollection_15">
    <path d="M 277.482644 213.545455 
L 277.482644 20.454545 
" clip-path="url(#p62e7c4f153)" style="fill: none; stroke: #808080; stroke-width: 0.2"/>
   </g>
   <g id="LineCollection_16">
    <path d="M 294.679358 213.545455 
L 294.679358 20.454545 
" clip-path="url(#p62e7c4f153)" style="fill: none; stroke: #808080; stroke-width: 0.2"/>
   </g>
   <g id="LineCollection_17">
    <path d="M 311.876073 213.545455 
L 311.876073 20.454545 
" clip-path="url(#p62e7c4f153)" style="fill: none; stroke: #808080; stroke-width: 0.2"/>
   </g>
   <g id="LineCollection_18">
    <path d="M 329.072787 213.545455 
L 329.072787 20.454545 
" clip-path="url(#p62e7c4f153)" style="fill: none; stroke: #808080; stroke-width: 0.2"/>
   </g>
   <g id="LineCollection_19">
    <path d="M 346.269502 213.545455 
L 346.269502 20.454545 
" clip-path="url(#p62e7c4f153)" style="fill: none; stroke: #808080; stroke-width: 0.2"/>
   </g>
   <g id="LineCollection_20">
    <path d="M 363.466216 213.545455 
L 363.466216 20.454545 
" clip-path="url(#p62e7c4f153)" style="fill: none; stroke: #808080; stroke-width: 0.2"/>
   </g>
   <g id="LineCollection_21">
    <path d="M 380.66293 213.545455 
L 380.66293 20.454545 
" clip-path="url(#p62e7c4f153)" style="fill: none; stroke: #808080; stroke-width: 0.2"/>
   </g>
   <g id="LineCollection_22">
    <path d="M 397.859645 213.545455 
L 397.859645 20.454545 
" clip-path="url(#p62e7c4f153)" style="fill: none; stroke: #808080; stroke-width: 0.2"/>
   </g>
   <g id="LineCollection_23">
    <path d="M 415.056359 213.545455 
L 415.056359 20.454545 
" clip-path="url(#p62e7c4f153)" style="fill: none; stroke: #808080; stroke-width: 0.2"/>
   </g>
   <g id="LineCollection_24">
    <path d="M 432.253074 213.545455 
L 432.253074 20.454545 
" clip-path="url(#p62e7c4f153)" style="fill: none; stroke: #808080; stroke-width: 0.2"/>
   </g>
   <g id="LineCollection_25">
    <path d="M 449.449788 213.545455 
L 449.449788 20.454545 
" clip-path="url(#p62e7c4f153)" style="fill: none; stroke: #808080; stroke-width: 0.2"/>
   </g>
   <g id="LineCollection_26">
    <path d="M 466.646503 213.545455 
L 466.646503 20.454545 
" clip-path="url(#p62e7c4f153)" style="fill: none; stroke: #808080; stroke-width: 0.2"/>
   </g>
  </g>
 </g>
 <defs>
  <clipPath id="p62e7c4f153">
   <rect x="10.8" y="10.8" width="482.4" height="212.4"/>
  </clipPath>
 </defs>
</svg>
