<?xml version="1.0" encoding="utf-8" standalone="no"?>
<!DOCTYPE svg PUBLIC "-//W3C//DTD SVG 1.1//EN"
  "http://www.w3.org/Graphics/SVG/1.1/DTD/svg11.dtd">
<svg xmlns:xlink="http://www.w3.org/1999/xlink" width="504pt" height="234pt" viewBox="0 0 504 234" xmlns="http://www.w3.org/2000/svg" version="1.1">
 <metadata>
  <rdf:RDF xmlns:dc="http://purl.org/dc/elements/1.1/" xmlns:cc="http://creativecommons.org/ns#" xmlns:rdf="http://www.w3.org/1999/02/22-rdf-syntax-ns#">
   <cc:Work>
    <dc:type rdf:resource="http://purl.org/dc/dcmitype/StillImage"/>
    <dc:date>2024-02-28T21:07:43.162620</dc:date>
    <dc:format>image/svg+xml</dc:format>
    <dc:creator>
     <cc:Agent>
      <dc:title>Matplotlib v3.8.2, https://matplotlib.org/</dc:title>
     </cc:Agent>
    </dc:creator>
   </cc:Work>
  </rdf:RDF>
 </metadata>
 <defs>
  <style type="text/css">*{stroke-linejoin: round; stroke-linecap: butt}</style>
 </defs>
 <g id="figure_1">
  <g id="patch_1">
   <path d="M 0 234 
L 504 234 
L 504 0 
L 0 0 
L 0 234 
z
" style="fill: none"/>
  </g>
  <g id="axes_1">
   <g id="line2d_1">
    <path d="M 108.428571 49.418182 
L 113.769429 49.523199 
L 116.296286 49.95668 
L 118.019143 50.154737 
L 119.225143 50.067894 
L 120.316286 49.761928 
L 121.522286 49.173473 
L 123.647143 47.806101 
L 124.910571 47.151083 
L 125.772 46.938972 
L 126.518571 46.972219 
L 127.265143 47.237644 
L 128.011714 47.743862 
L 128.873143 48.606915 
L 130.021714 50.11064 
L 132.491143 53.451798 
L 133.295143 54.125179 
L 133.926857 54.384639 
L 134.501143 54.37969 
L 135.075429 54.127838 
L 135.649714 53.624456 
L 136.338857 52.701264 
L 137.200286 51.119817 
L 138.406286 48.366972 
L 140.358857 43.908267 
L 141.162857 42.596575 
L 141.794571 41.946157 
L 142.311429 41.708677 
L 142.770857 41.739226 
L 143.230286 42.005219 
L 143.747143 42.585758 
L 144.378857 43.68244 
L 145.125429 45.466344 
L 146.159143 48.586037 
L 148.800857 56.892902 
L 149.547429 58.449 
L 150.121714 59.205386 
L 150.581143 59.497338 
L 150.983143 59.51071 
L 151.385143 59.293089 
L 151.844571 58.76286 
L 152.418857 57.693877 
L 153.108 55.871079 
L 154.026857 52.71115 
L 157.53 39.813236 
L 158.161714 38.541332 
L 158.678571 37.937448 
L 159.080571 37.759893 
L 159.425143 37.816923 
L 159.827143 38.128027 
L 160.286571 38.799128 
L 160.860857 40.08413 
L 161.55 42.203311 
L 162.526286 46.017582 
L 165.455143 58.086699 
L 166.201714 60.056362 
L 166.776 61.015875 
L 167.235429 61.40026 
L 167.637429 61.446889 
L 167.982 61.270829 
L 168.384 60.818131 
L 168.900857 59.862939 
L 169.532571 58.179405 
L 170.394 55.144442 
L 171.829714 49.050343 
L 173.322857 43.010982 
L 174.184286 40.395478 
L 174.816 39.087332 
L 175.332857 38.45593 
L 175.734857 38.251811 
L 176.136857 38.30119 
L 176.538857 38.599853 
L 176.998286 39.23331 
L 177.572571 40.427382 
L 178.319143 42.544377 
L 179.410286 46.418182 
L 181.707429 54.734135 
L 182.511429 56.815832 
L 183.143143 57.936404 
L 183.66 58.476751 
L 184.119429 58.662133 
L 184.521429 58.597571 
L 184.980857 58.273288 
L 185.497714 57.610168 
L 186.129429 56.4218 
L 186.990857 54.279507 
L 188.656286 49.355718 
L 189.919714 45.944626 
L 190.781143 44.206958 
L 191.470286 43.283942 
L 192.044571 42.864283 
L 192.561429 42.762542 
L 193.078286 42.913752 
L 193.652571 43.356049 
L 194.341714 44.216109 
L 195.260571 45.781237 
L 198.648857 52.007811 
L 199.452857 52.84944 
L 200.142 53.254341 
L 200.773714 53.366397 
L 201.405429 53.245799 
L 202.094571 52.882387 
L 202.956 52.16422 
L 204.391714 50.623622 
L 206.057143 48.928807 
L 207.090857 48.198347 
L 207.952286 47.846795 
L 208.813714 47.731053 
L 209.732571 47.834336 
L 210.881143 48.198589 
L 214.671429 49.587946 
L 216.049714 49.744278 
L 217.715143 49.691829 
L 222.481714 49.418036 
L 223.228286 49.418173 
L 223.228286 49.418173 
" clip-path="url(#p0442ece1da)" style="fill: none; stroke: #000000; stroke-width: 0.5; stroke-linecap: square"/>
   </g>
   <g id="line2d_2">
    <path d="M 137.142857 73.554545 
L 140.818286 73.448446 
L 144.666 73.249954 
L 146.044286 73.459134 
L 147.48 73.918305 
L 150.983143 75.189047 
L 151.902 75.213219 
L 152.763429 75.009567 
L 153.624857 74.567454 
L 154.601143 73.795769 
L 155.922 72.429037 
L 157.874571 70.415823 
L 158.736 69.842382 
L 159.425143 69.632931 
L 160.056857 69.675156 
L 160.688571 69.961449 
L 161.320286 70.496225 
L 162.066857 71.431412 
L 162.985714 72.959399 
L 164.708571 76.382833 
L 165.972 78.643363 
L 166.776 79.6486 
L 167.407714 80.09382 
L 167.924571 80.19488 
L 168.384 80.071 
L 168.900857 79.684851 
L 169.475143 78.953513 
L 170.164286 77.684557 
L 171.025714 75.596588 
L 172.461429 71.405132 
L 173.954571 67.241239 
L 174.758571 65.578364 
L 175.390286 64.722304 
L 175.907143 64.370001 
L 176.309143 64.330089 
L 176.711143 64.501857 
L 177.170571 64.958291 
L 177.687429 65.794596 
L 178.319143 67.247026 
L 179.180571 69.866332 
L 180.501429 74.751608 
L 182.166857 80.753166 
L 183.028286 83.044498 
L 183.66 84.149841 
L 184.176857 84.630415 
L 184.578857 84.722072 
L 184.980857 84.560702 
L 185.382857 84.14704 
L 185.899714 83.256001 
L 186.531429 81.659373 
L 187.335429 78.948138 
L 188.541429 73.963983 
L 190.436571 66.154457 
L 191.298 63.541891 
L 191.929714 62.257396 
L 192.446571 61.667402 
L 192.848571 61.513211 
L 193.193143 61.597284 
L 193.595143 61.946089 
L 194.054571 62.665401 
L 194.628857 64.012966 
L 195.375429 66.407977 
L 196.409143 70.581455 
L 198.936 81.131682 
L 199.74 83.440717 
L 200.371714 84.623259 
L 200.831143 85.092779 
L 201.233143 85.222589 
L 201.577714 85.123974 
L 201.979714 84.768304 
L 202.439143 84.057785 
L 203.013429 82.75103 
L 203.76 80.465074 
L 204.851143 76.316967 
L 207.090857 67.663351 
L 207.894857 65.42332 
L 208.526571 64.214224 
L 209.043429 63.630723 
L 209.502857 63.431803 
L 209.904857 63.504865 
L 210.306857 63.802472 
L 210.823714 64.496464 
L 211.455429 65.770478 
L 212.259429 67.935594 
L 213.580286 72.242667 
L 215.188286 77.330207 
L 216.049714 79.397672 
L 216.738857 80.541713 
L 217.313143 81.102984 
L 217.772571 81.285921 
L 218.232 81.234804 
L 218.691429 80.959593 
L 219.265714 80.326337 
L 219.954857 79.203527 
L 220.931143 77.124083 
L 223.86 70.560826 
L 224.664 69.411435 
L 225.353143 68.800336 
L 225.927429 68.56826 
L 226.501714 68.582848 
L 227.076 68.826456 
L 227.765143 69.381048 
L 228.626571 70.382617 
L 230.292 72.763286 
L 231.670286 74.553733 
L 232.589143 75.411044 
L 233.393143 75.872774 
L 234.139714 76.051136 
L 234.886286 76.004798 
L 235.747714 75.718188 
L 236.896286 75.073024 
L 239.825143 73.306129 
L 240.973714 72.934865 
L 242.122286 72.809501 
L 243.443143 72.90576 
L 248.956286 73.590781 
L 251.942571 73.554575 
L 251.942571 73.554575 
" clip-path="url(#p0442ece1da)" style="fill: none; stroke: #000000; stroke-width: 0.5; stroke-linecap: square"/>
   </g>
   <g id="line2d_3">
    <path d="M 165.857143 97.690909 
L 172.461429 97.58839 
L 174.471429 97.132549 
L 176.538857 96.712219 
L 177.687429 96.712011 
L 178.663714 96.926459 
L 179.697429 97.390318 
L 180.903429 98.197214 
L 183.947143 100.371424 
L 184.751143 100.613784 
L 185.440286 100.607784 
L 186.129429 100.377038 
L 186.818571 99.912126 
L 187.622571 99.086988 
L 188.598857 97.746263 
L 191.929714 92.830458 
L 192.618857 92.321364 
L 193.193143 92.154765 
L 193.71 92.227752 
L 194.226857 92.52219 
L 194.801143 93.109682 
L 195.490286 94.157773 
L 196.351714 95.919007 
L 197.672571 99.233145 
L 199.395429 103.463431 
L 200.199429 104.900893 
L 200.831143 105.627583 
L 201.348 105.90982 
L 201.807429 105.90452 
L 202.266857 105.64956 
L 202.783714 105.064335 
L 203.358 104.058174 
L 204.104571 102.24812 
L 205.080857 99.222367 
L 208.067143 89.504202 
L 208.756286 88.11978 
L 209.330571 87.421877 
L 209.79 87.195147 
L 210.192 87.250178 
L 210.594 87.544705 
L 211.053429 88.170393 
L 211.627714 89.364816 
L 212.316857 91.337579 
L 213.293143 94.904762 
L 216.336857 106.665134 
L 217.026 108.323497 
L 217.600286 109.185346 
L 218.059714 109.499862 
L 218.461714 109.490564 
L 218.863714 109.214052 
L 219.323143 108.577436 
L 219.897429 107.327462 
L 220.586571 105.237926 
L 221.505429 101.685095 
L 224.664 88.742396 
L 225.353143 87.007131 
L 225.927429 86.101284 
L 226.386857 85.761123 
L 226.788857 85.752305 
L 227.190857 86.012401 
L 227.650286 86.629464 
L 228.224571 87.8492 
L 228.913714 89.887106 
L 229.89 93.570548 
L 232.818857 105.195537 
L 233.565429 107.104373 
L 234.139714 108.05569 
L 234.599143 108.463973 
L 235.001143 108.556852 
L 235.403143 108.404146 
L 235.862571 107.938238 
L 236.379429 107.066352 
L 237.068571 105.401067 
L 237.987429 102.498804 
L 241.260857 91.450929 
L 242.007429 89.945945 
L 242.581714 89.234269 
L 243.041143 88.960798 
L 243.500571 88.951639 
L 243.96 89.199275 
L 244.476857 89.765535 
L 245.108571 90.824584 
L 245.912571 92.636961 
L 247.290857 96.407049 
L 248.841429 100.486609 
L 249.760286 102.298096 
L 250.449429 103.214957 
L 251.023714 103.656261 
L 251.540571 103.7974 
L 252.057429 103.702955 
L 252.631714 103.341575 
L 253.320857 102.598487 
L 254.182286 101.3074 
L 255.962571 98.097638 
L 257.226 96.067706 
L 258.087429 95.0604 
L 258.834 94.504992 
L 259.523143 94.268553 
L 260.154857 94.276452 
L 260.844 94.504386 
L 261.705429 95.048227 
L 262.968857 96.162241 
L 265.093714 98.040146 
L 266.127429 98.648926 
L 267.046286 98.947436 
L 267.965143 99.022399 
L 269.056286 98.87383 
L 270.664286 98.387384 
L 272.961429 97.715143 
L 274.454571 97.519844 
L 276.234857 97.524766 
L 280.656857 97.6909 
L 280.656857 97.6909 
" clip-path="url(#p0442ece1da)" style="fill: none; stroke: #000000; stroke-width: 0.5; stroke-linecap: square"/>
   </g>
   <g id="line2d_4">
    <path d="M 194.571429 121.827273 
L 198.936 121.936294 
L 203.645143 122.295991 
L 204.851143 122.057712 
L 206.114571 121.574025 
L 208.469143 120.350091 
L 209.675143 119.882861 
L 210.594 119.760986 
L 211.398 119.881443 
L 212.202 120.240869 
L 213.063429 120.890233 
L 214.097143 121.975573 
L 217.542857 125.875731 
L 218.232 126.213862 
L 218.863714 126.273385 
L 219.438 126.09696 
L 220.012286 125.692341 
L 220.701429 124.911667 
L 221.505429 123.634459 
L 222.596571 121.434125 
L 225.066 116.305133 
L 225.812571 115.281998 
L 226.444286 114.773881 
L 226.961143 114.640734 
L 227.420571 114.751682 
L 227.88 115.084072 
L 228.454286 115.807514 
L 229.143429 117.099443 
L 230.004857 119.263847 
L 231.325714 123.312738 
L 232.991143 128.303703 
L 233.852571 130.199828 
L 234.484286 131.097285 
L 235.001143 131.464852 
L 235.403143 131.505032 
L 235.805143 131.32369 
L 236.264571 130.844955 
L 236.781429 129.970459 
L 237.413143 128.455492 
L 238.274571 125.730745 
L 239.595429 120.666349 
L 241.260857 114.470879 
L 242.064857 112.243652 
L 242.696571 111.058276 
L 243.213429 110.519935 
L 243.615429 110.389035 
L 244.017429 110.516641 
L 244.419429 110.902348 
L 244.936286 111.766308 
L 245.568 113.343578 
L 246.372 116.051568 
L 247.520571 120.818805 
L 249.530571 129.219464 
L 250.392 131.852438 
L 251.023714 133.145296 
L 251.540571 133.738984 
L 251.942571 133.894736 
L 252.287143 133.811498 
L 252.689143 133.463535 
L 253.148571 132.745624 
L 253.722857 131.401495 
L 254.469429 129.015482 
L 255.503143 124.865471 
L 258.03 114.41488 
L 258.834 112.136356 
L 259.465714 110.971125 
L 259.925143 110.508783 
L 260.327143 110.380673 
L 260.729143 110.511256 
L 261.131143 110.894886 
L 261.648 111.740743 
L 262.279714 113.259764 
L 263.083714 115.81774 
L 264.404571 120.89452 
L 266.07 127.090967 
L 266.931429 129.483907 
L 267.620571 130.777866 
L 268.137429 131.337825 
L 268.596857 131.527668 
L 268.998857 131.456484 
L 269.458286 131.112396 
L 269.975143 130.41161 
L 270.606857 129.156365 
L 271.468286 126.891174 
L 273.076286 121.849482 
L 274.397143 118.034369 
L 275.258571 116.175962 
L 275.947714 115.185681 
L 276.522 114.733994 
L 276.981429 114.6223 
L 277.440857 114.727398 
L 277.957714 115.089862 
L 278.589429 115.846741 
L 279.393429 117.212664 
L 280.599429 119.770921 
L 282.494571 123.743826 
L 283.413429 125.14798 
L 284.16 125.89706 
L 284.791714 126.230774 
L 285.366 126.29627 
L 285.940286 126.148922 
L 286.629429 125.724704 
L 287.490857 124.89667 
L 288.869143 123.196753 
L 290.534571 121.216195 
L 291.510857 120.379602 
L 292.372286 119.926092 
L 293.176286 119.753938 
L 293.980286 119.80429 
L 294.956571 120.104497 
L 296.392286 120.821191 
L 298.517143 121.865837 
L 299.780571 122.22595 
L 301.044 122.344189 
L 302.594571 122.243997 
L 307.016571 121.82427 
L 309.371143 121.827249 
L 309.371143 121.827249 
" clip-path="url(#p0442ece1da)" style="fill: none; stroke: #000000; stroke-width: 0.5; stroke-linecap: square"/>
   </g>
   <g id="line2d_5">
    <path d="M 223.285714 145.963636 
L 226.788857 145.853351 
L 229.488 145.795666 
L 231.038571 145.999274 
L 232.704 146.459996 
L 235.403143 147.232374 
L 236.436857 147.27293 
L 237.355714 147.091294 
L 238.274571 146.680119 
L 239.308286 145.960222 
L 240.801429 144.607866 
L 242.466857 143.167865 
L 243.328286 142.694747 
L 244.017429 142.539488 
L 244.649143 142.606802 
L 245.280857 142.892388 
L 245.97 143.456705 
L 246.774 144.426615 
L 247.807714 146.065677 
L 250.794 151.067949 
L 251.540571 151.770738 
L 252.114857 152.026982 
L 252.631714 152.018744 
L 253.148571 151.771326 
L 253.722857 151.212903 
L 254.354571 150.267286 
L 255.158571 148.619939 
L 256.249714 145.808921 
L 258.604286 139.582618 
L 259.408286 138.134934 
L 259.982571 137.488944 
L 260.499429 137.228159 
L 260.901429 137.249993 
L 261.360857 137.522498 
L 261.877714 138.143299 
L 262.452 139.206456 
L 263.198571 141.112711 
L 264.174857 144.288122 
L 267.103714 154.276286 
L 267.850286 155.855562 
L 268.424571 156.577358 
L 268.884 156.811291 
L 269.286 156.754185 
L 269.688 156.450242 
L 270.147429 155.805621 
L 270.721714 154.577013 
L 271.410857 152.551384 
L 272.387143 148.896758 
L 275.373429 137.07396 
L 276.12 135.222062 
L 276.694286 134.347898 
L 277.153714 134.028667 
L 277.498286 134.019305 
L 277.900286 134.259067 
L 278.359714 134.857504 
L 278.876571 135.923496 
L 279.565714 137.923223 
L 280.484571 141.395487 
L 283.930286 155.296426 
L 284.619429 156.853858 
L 285.136286 157.546974 
L 285.538286 157.785974 
L 285.882857 157.777901 
L 286.284857 157.521658 
L 286.744286 156.913158 
L 287.318571 155.711034 
L 288.007714 153.704963 
L 288.984 150.085782 
L 291.855429 138.886411 
L 292.602 136.975697 
L 293.233714 135.934035 
L 293.693143 135.538163 
L 294.095143 135.448429 
L 294.497143 135.59656 
L 294.956571 136.047406 
L 295.473429 136.889675 
L 296.162571 138.495315 
L 297.081429 141.286628 
L 300.297429 151.70785 
L 301.044 153.179125 
L 301.618286 153.888797 
L 302.135143 154.194419 
L 302.594571 154.200202 
L 303.054 153.963781 
L 303.570857 153.427536 
L 304.202571 152.429064 
L 305.064 150.591634 
L 306.614571 146.604821 
L 307.992857 143.307288 
L 308.854286 141.762794 
L 309.543429 140.926751 
L 310.117714 140.528872 
L 310.634571 140.406287 
L 311.151429 140.499073 
L 311.725714 140.835038 
L 312.414857 141.516748 
L 313.333714 142.777799 
L 316.779429 147.875739 
L 317.583429 148.533563 
L 318.33 148.85966 
L 319.019143 148.92103 
L 319.765714 148.75372 
L 320.627143 148.317364 
L 321.890571 147.388662 
L 324.130286 145.727049 
L 325.221429 145.212204 
L 326.255143 144.975549 
L 327.346286 144.969236 
L 328.724571 145.210602 
L 332.457429 145.991637 
L 334.295143 146.057347 
L 338.085429 145.963661 
L 338.085429 145.963661 
" clip-path="url(#p0442ece1da)" style="fill: none; stroke: #000000; stroke-width: 0.5; stroke-linecap: square"/>
   </g>
   <g id="line2d_6">
    <path d="M 252 170.1 
L 257.340857 169.994153 
L 259.867714 169.561101 
L 261.590571 169.364663 
L 262.796571 169.453102 
L 263.887714 169.760467 
L 265.093714 170.349915 
L 267.276 171.751603 
L 268.482 172.368259 
L 269.343429 172.577625 
L 270.09 172.5417 
L 270.836571 172.273556 
L 271.583143 171.764834 
L 272.444571 170.899518 
L 273.593143 169.394451 
L 276.062571 166.059186 
L 276.866571 165.390208 
L 277.498286 165.13478 
L 278.072571 165.143636 
L 278.646857 165.399435 
L 279.221143 165.9066 
L 279.910286 166.833828 
L 280.771714 168.419059 
L 281.977714 171.173865 
L 283.930286 175.625768 
L 284.734286 176.931311 
L 285.366 177.575906 
L 285.882857 177.808202 
L 286.342286 177.772891 
L 286.801714 177.502143 
L 287.318571 176.91645 
L 287.950286 175.814046 
L 288.696857 174.024671 
L 289.730571 170.90062 
L 292.372286 162.603726 
L 293.118857 161.055491 
L 293.693143 160.306141 
L 294.152571 160.020209 
L 294.554571 160.012237 
L 294.956571 160.235251 
L 295.416 160.771476 
L 295.990286 161.847425 
L 296.679429 163.677353 
L 297.598286 166.843857 
L 301.044 179.585436 
L 301.733143 180.990524 
L 302.25 181.586786 
L 302.652 181.75818 
L 302.996571 181.695826 
L 303.398571 181.378585 
L 303.858 180.700746 
L 304.432286 179.408031 
L 305.178857 177.079311 
L 306.155143 173.214445 
L 308.969143 161.58261 
L 309.715714 159.564624 
L 310.29 158.562174 
L 310.749429 158.141352 
L 311.151429 158.062275 
L 311.496 158.210713 
L 311.898 158.63208 
L 312.414857 159.54953 
L 313.046571 161.192777 
L 313.850571 163.965652 
L 315.114 169.253287 
L 316.836857 176.338676 
L 317.698286 179.002151 
L 318.387429 180.44759 
L 318.904286 181.07158 
L 319.306286 181.269757 
L 319.708286 181.21443 
L 320.110286 180.909954 
L 320.569714 180.270184 
L 321.144 179.068985 
L 321.890571 176.944473 
L 322.981714 173.06421 
L 325.221429 164.92688 
L 326.082857 162.679879 
L 326.714571 161.566337 
L 327.231429 161.032212 
L 327.690857 160.852501 
L 328.092857 160.921991 
L 328.552286 161.251714 
L 329.069143 161.920523 
L 329.700857 163.11494 
L 330.562286 165.263383 
L 332.285143 170.36005 
L 333.548571 173.730786 
L 334.41 175.422555 
L 335.099143 176.302596 
L 335.673429 176.684768 
L 336.190286 176.753144 
L 336.707143 176.570282 
L 337.281429 176.096248 
L 337.970571 175.204704 
L 338.889429 173.611509 
L 342.105429 167.646745 
L 342.909429 166.754486 
L 343.598571 166.303719 
L 344.230286 166.150818 
L 344.862 166.234233 
L 345.551143 166.563611 
L 346.412571 167.251531 
L 347.733429 168.64714 
L 349.571143 170.548634 
L 350.604857 171.294551 
L 351.466286 171.660008 
L 352.327714 171.788609 
L 353.246571 171.696262 
L 354.395143 171.340106 
L 358.357714 169.906192 
L 359.736 169.76942 
L 361.458857 169.840368 
L 365.766 170.09916 
L 366.799714 170.100009 
L 366.799714 170.100009 
" clip-path="url(#p0442ece1da)" style="fill: none; stroke: #000000; stroke-width: 0.5; stroke-linecap: square"/>
   </g>
   <g id="line2d_7">
    <path d="M 280.714286 194.236364 
L 284.389714 194.342673 
L 288.18 194.543378 
L 289.558286 194.342771 
L 290.936571 193.913888 
L 294.669429 192.587785 
L 295.588286 192.59477 
L 296.449714 192.832005 
L 297.311143 193.307697 
L 298.287429 194.111313 
L 299.723143 195.626743 
L 301.446 197.380435 
L 302.307429 197.950196 
L 302.996571 198.156142 
L 303.628286 198.110465 
L 304.26 197.820703 
L 304.891714 197.28266 
L 305.638286 196.344187 
L 306.557143 194.813506 
L 308.28 191.390657 
L 309.543429 189.135783 
L 310.347429 188.136157 
L 310.979143 187.69613 
L 311.496 187.599629 
L 311.955429 187.727646 
L 312.472286 188.118379 
L 313.046571 188.854502 
L 313.735714 190.128425 
L 314.597143 192.220835 
L 316.032857 196.413818 
L 317.526 200.57053 
L 318.33 202.226211 
L 318.961714 203.075414 
L 319.478571 203.42159 
L 319.880571 203.45657 
L 320.282571 203.279849 
L 320.742 202.817876 
L 321.258857 201.975705 
L 321.890571 200.516967 
L 322.752 197.891255 
L 324.072857 193.00264 
L 325.738286 187.009449 
L 326.599714 184.727346 
L 327.231429 183.630285 
L 327.748286 183.157095 
L 328.150286 183.071368 
L 328.552286 183.238685 
L 328.954286 183.658172 
L 329.471143 184.5563 
L 330.102857 186.160607 
L 330.906857 188.879379 
L 332.112857 193.868716 
L 334.008 201.669654 
L 334.869429 204.272322 
L 335.501143 205.547905 
L 336.018 206.129954 
L 336.42 206.277766 
L 336.764571 206.188206 
L 337.166571 205.833112 
L 337.626 205.106933 
L 338.200286 203.751572 
L 338.946857 201.348286 
L 339.980571 197.167901 
L 342.507429 186.626616 
L 343.311429 184.32713 
L 343.943143 183.153502 
L 344.402571 182.690925 
L 344.804571 182.567324 
L 345.149143 182.671242 
L 345.551143 183.032956 
L 346.068 183.861345 
L 346.699714 185.377466 
L 347.503714 187.963255 
L 348.767143 192.922745 
L 350.547429 199.785276 
L 351.408857 202.256629 
L 352.098 203.592859 
L 352.614857 204.169592 
L 353.074286 204.362327 
L 353.476286 204.283879 
L 353.878286 203.981039 
L 354.395143 203.280733 
L 355.026857 201.999939 
L 355.830857 199.828194 
L 357.209143 195.321721 
L 358.759714 190.433132 
L 359.621143 188.371981 
L 360.310286 187.234307 
L 360.884571 186.678858 
L 361.344 186.500706 
L 361.803429 186.556561 
L 362.262857 186.836319 
L 362.837143 187.474793 
L 363.526286 188.602894 
L 364.502571 190.687496 
L 367.374 197.149661 
L 368.178 198.326097 
L 368.867143 198.962594 
L 369.441429 199.215896 
L 370.015714 199.221446 
L 370.59 198.995939 
L 371.279143 198.459288 
L 372.140571 197.472997 
L 373.633714 195.347498 
L 375.126857 193.354824 
L 376.103143 192.414519 
L 376.907143 191.935582 
L 377.653714 191.74174 
L 378.400286 191.774454 
L 379.261714 192.048969 
L 380.352857 192.648954 
L 383.568857 194.560726 
L 384.66 194.882198 
L 385.808571 194.983214 
L 387.186857 194.859622 
L 392.068286 194.205644 
L 395.514 194.236334 
L 395.514 194.236334 
" clip-path="url(#p0442ece1da)" style="fill: none; stroke: #000000; stroke-width: 0.5; stroke-linecap: square"/>
   </g>
   <g id="LineCollection_1">
    <path d="M 125.299059 213.545455 
L 125.299059 20.454545 
" clip-path="url(#p0442ece1da)" style="fill: none; stroke: #808080; stroke-width: 0.1"/>
   </g>
   <g id="LineCollection_2">
    <path d="M 142.188689 213.545455 
L 142.188689 20.454545 
" clip-path="url(#p0442ece1da)" style="fill: none; stroke: #808080; stroke-width: 0.1"/>
   </g>
   <g id="LineCollection_3">
    <path d="M 159.078319 213.545455 
L 159.078319 20.454545 
" clip-path="url(#p0442ece1da)" style="fill: none; stroke: #808080; stroke-width: 0.1"/>
   </g>
   <g id="LineCollection_4">
    <path d="M 175.96795 213.545455 
L 175.96795 20.454545 
" clip-path="url(#p0442ece1da)" style="fill: none; stroke: #808080; stroke-width: 0.1"/>
   </g>
   <g id="LineCollection_5">
    <path d="M 192.85758 213.545455 
L 192.85758 20.454545 
" clip-path="url(#p0442ece1da)" style="fill: none; stroke: #808080; stroke-width: 0.1"/>
   </g>
   <g id="LineCollection_6">
    <path d="M 209.74721 213.545455 
L 209.74721 20.454545 
" clip-path="url(#p0442ece1da)" style="fill: none; stroke: #808080; stroke-width: 0.1"/>
   </g>
   <g id="LineCollection_7">
    <path d="M 226.63684 213.545455 
L 226.63684 20.454545 
" clip-path="url(#p0442ece1da)" style="fill: none; stroke: #808080; stroke-width: 0.1"/>
   </g>
   <g id="LineCollection_8">
    <path d="M 243.526471 213.545455 
L 243.526471 20.454545 
" clip-path="url(#p0442ece1da)" style="fill: none; stroke: #808080; stroke-width: 0.1"/>
   </g>
   <g id="LineCollection_9">
    <path d="M 260.416101 213.545455 
L 260.416101 20.454545 
" clip-path="url(#p0442ece1da)" style="fill: none; stroke: #808080; stroke-width: 0.1"/>
   </g>
   <g id="LineCollection_10">
    <path d="M 277.305731 213.545455 
L 277.305731 20.454545 
" clip-path="url(#p0442ece1da)" style="fill: none; stroke: #808080; stroke-width: 0.1"/>
   </g>
   <g id="LineCollection_11">
    <path d="M 294.195361 213.545455 
L 294.195361 20.454545 
" clip-path="url(#p0442ece1da)" style="fill: none; stroke: #808080; stroke-width: 0.1"/>
   </g>
   <g id="LineCollection_12">
    <path d="M 311.084992 213.545455 
L 311.084992 20.454545 
" clip-path="url(#p0442ece1da)" style="fill: none; stroke: #808080; stroke-width: 0.1"/>
   </g>
   <g id="LineCollection_13">
    <path d="M 327.974622 213.545455 
L 327.974622 20.454545 
" clip-path="url(#p0442ece1da)" style="fill: none; stroke: #808080; stroke-width: 0.1"/>
   </g>
   <g id="LineCollection_14">
    <path d="M 344.864252 213.545455 
L 344.864252 20.454545 
" clip-path="url(#p0442ece1da)" style="fill: none; stroke: #808080; stroke-width: 0.1"/>
   </g>
   <g id="LineCollection_15">
    <path d="M 361.753882 213.545455 
L 361.753882 20.454545 
" clip-path="url(#p0442ece1da)" style="fill: none; stroke: #808080; stroke-width: 0.1"/>
   </g>
   <g id="LineCollection_16">
    <path d="M 378.643513 213.545455 
L 378.643513 20.454545 
" clip-path="url(#p0442ece1da)" style="fill: none; stroke: #808080; stroke-width: 0.1"/>
   </g>
  </g>
 </g>
 <defs>
  <clipPath id="p0442ece1da">
   <rect x="10.8" y="10.8" width="482.4" height="212.4"/>
  </clipPath>
 </defs>
</svg>
