<?xml version="1.0" encoding="utf-8"?>
<!-- Generator: Adobe Illustrator 21.1.0, SVG Export Plug-In . SVG Version: 6.00 Build 0)  -->
<svg version="1.1" id="Layer_1" xmlns="http://www.w3.org/2000/svg" xmlns:xlink="http://www.w3.org/1999/xlink" x="0px" y="0px"
	 viewBox="0 0 72 72" style="enable-background:new 0 0 72 72;" xml:space="preserve">
<style type="text/css">
	.st0{stroke:#000000;stroke-width:3;stroke-miterlimit:10;}
	.st1{fill:#FFFFFF;}
</style>
<g>
	<path d="M69,3v66H3V3H69 M72,0H0v72h72V0L72,0z"/>
</g>
<rect x="7.3" y="7.3" class="st0" width="57.3" height="57.3"/>
<g>
	<path class="st1" d="M14.8,59.1l18.4-23c-1-8.8-1.5-13.3-1.5-13.3c-0.5-3.2-1.5-5.1-2.9-5.5c-0.4-0.1-0.8-0.2-1.3-0.2
		c-2.5,0-4.5,2-5.8,5.9l-2.1-3.3c0.5-2.2,1.7-3.9,3.6-5.2c1.9-1.3,3.9-1.9,5.9-1.9c0.8,0,1.5,0.1,2.1,0.3c0.6,0.2,1.1,0.5,1.6,1
		c0.5,0.5,0.9,0.9,1.3,1.4c0.4,0.5,0.7,1.1,0.9,2c0.3,0.9,0.5,1.6,0.7,2.3c0.2,0.6,0.3,1.5,0.5,2.7c0.1,1.2,0.2,2.1,0.3,2.8
		c0.1,0.7,0.2,1.7,0.3,3c0.2,1.4,0.3,2.4,0.3,3.1l14.4-18h4.4L37.8,36c0.2,1.5,0.4,3.6,0.7,6.2c0.6,5.9,1.2,9.5,1.8,10.9
		c0.7,1.3,1.7,2,3.1,2c1.2,0,2.3-0.5,3.4-1.5c1.1-1,1.8-2.5,2.3-4.4l2.1,3.3c-0.6,2.4-1.8,4.2-3.8,5.4c-2,1.2-3.9,1.8-5.7,1.8
		c-0.8,0-1.5-0.1-2.1-0.3c-0.6-0.2-1.1-0.5-1.6-0.9s-0.9-0.9-1.2-1.4c-0.4-0.5-0.7-1.1-0.9-1.9c-0.3-0.8-0.5-1.6-0.6-2.2
		c-0.2-0.7-0.3-1.6-0.4-2.7c-0.1-1.1-0.2-2.1-0.3-2.9c-0.1-0.8-0.2-1.8-0.3-3.1C34,43,33.9,41.9,33.8,41L19.3,59.1H14.8z"/>
</g>
</svg>
