<?xml version="1.0" encoding="utf-8" standalone="no"?>
<!DOCTYPE svg PUBLIC "-//W3C//DTD SVG 1.1//EN"
  "http://www.w3.org/Graphics/SVG/1.1/DTD/svg11.dtd">
<svg height="216pt" version="1.1" viewBox="0 0 720 216" width="720pt" xmlns="http://www.w3.org/2000/svg" xmlns:xlink="http://www.w3.org/1999/xlink">
 <metadata>
  <rdf:RDF xmlns:cc="http://creativecommons.org/ns#" xmlns:dc="http://purl.org/dc/elements/1.1/" xmlns:rdf="http://www.w3.org/1999/02/22-rdf-syntax-ns#">
   <cc:Work>
    <dc:type rdf:resource="http://purl.org/dc/dcmitype/StillImage"/>
    <dc:date>2023-01-08T11:34:41.926077</dc:date>
    <dc:format>image/svg+xml</dc:format>
    <dc:creator>
     <cc:Agent>
      <dc:title>Matplotlib v3.4.3, https://matplotlib.org/</dc:title>
     </cc:Agent>
    </dc:creator>
   </cc:Work>
  </rdf:RDF>
 </metadata>
 <defs>
  <style type="text/css">*{stroke-linecap:butt;stroke-linejoin:round;}</style>
 </defs>
 <g id="figure_1">
  <g id="patch_1">
   <path d="M 0 216 
L 720 216 
L 720 0 
L 0 0 
z
" style="fill:none;"/>
  </g>
  <g id="patch_2">
   <path d="M 90.518824 189 
L 253.598824 189 
L 253.598824 25.92 
L 90.518824 25.92 
z
" style="fill:none;"/>
  </g>
  <g id="axes_1">
   <g id="Line3DCollection_1">
    <path clip-path="url(#p50c8014827)" style="fill:none;stroke:#000000;stroke-width:0.5;"/>
    <path clip-path="url(#p50c8014827)" d="M 113.373513 160.699155 
L 120.228173 158.49158 
L 127.231357 157.780164 
L 134.363987 158.59526 
L 141.605732 160.958343 
L 148.93519 164.88156 
L 156.33009 170.367397 
L 163.767512 177.408504 
" style="fill:none;stroke:#000000;stroke-width:0.5;"/>
    <path clip-path="url(#p50c8014827)" d="M 104.215759 153.665137 
L 110.765681 148.439092 
L 117.494715 144.639476 
L 124.386502 142.313389 
L 131.423163 141.500239 
L 138.585426 142.231044 
L 145.852786 144.527842 
L 153.203685 148.403229 
L 160.615722 153.860023 
L 168.065866 160.891077 
L 175.530704 169.479252 
L 182.986675 179.597542 
" style="fill:none;stroke:#000000;stroke-width:0.5;"/>
    <path clip-path="url(#p50c8014827)" d="M 101.930071 146.100365 
L 108.327387 139.358994 
L 114.915179 134.001832 
L 121.678505 130.083632 
L 128.600812 127.652177 
L 135.664042 126.747491 
L 142.848765 127.401138 
L 150.134339 129.635629 
L 157.499097 133.463943 
L 164.920547 138.889191 
L 172.375604 145.904426 
L 179.840821 154.492608 
L 187.292636 164.626732 
L 194.707617 176.270106 
" style="fill:none;stroke:#000000;stroke-width:0.5;"/>
    <path clip-path="url(#p50c8014827)" d="M 99.836061 141.622234 
L 106.068633 133.42781 
L 112.50141 126.565424 
L 119.12093 121.096525 
L 125.912066 117.076415 
L 132.858098 114.553385 
L 139.940824 113.567929 
L 147.140693 114.152036 
L 154.436968 116.328588 
L 161.807912 120.11088 
L 169.230997 125.502279 
L 176.683124 132.49603 
L 184.140865 141.075218 
L 191.580705 151.212893 
L 198.979289 162.872351 
L 206.313664 176.007571 
" style="fill:none;stroke:#000000;stroke-width:0.5;"/>
    <path clip-path="url(#p50c8014827)" d="M 103.996917 130.578614 
L 110.262851 122.279375 
L 116.725094 115.318516 
L 123.370006 109.757857 
L 130.182298 105.653054 
L 137.145114 103.052737 
L 144.240141 101.997719 
L 151.447747 102.520284 
L 158.747141 104.643587 
L 166.116563 108.381168 
L 173.53349 113.736608 
L 180.974863 120.703335 
L 188.417321 129.264582 
L 195.837444 139.393513 
L 203.212001 151.053498 
L 210.518189 164.198551 
" style="fill:none;stroke:#000000;stroke-width:0.5;"/>
    <path clip-path="url(#p50c8014827)" d="M 102.117216 130.7118 
L 108.206485 121.057993 
L 114.499949 112.67927 
L 120.985485 105.642886 
L 127.649294 100.010826 
L 134.475956 95.838907 
L 141.448509 93.175925 
L 148.548567 92.062858 
L 155.756452 92.532158 
L 163.051364 94.60715 
L 170.411563 98.301545 
L 177.814581 103.619097 
L 185.237444 110.553407 
L 192.656906 119.08788 
L 200.049693 129.195847 
L 207.392743 140.84084 
L 214.663449 153.977023 
L 221.839884 168.549761 
" style="fill:none;stroke:#000000;stroke-width:0.5;"/>
    <path clip-path="url(#p50c8014827)" d="M 106.336836 122.78443 
L 112.452028 113.075018 
L 118.767022 104.642315 
L 125.269533 97.553524 
L 131.945629 91.870589 
L 138.779785 87.649301 
L 145.754968 84.938445 
L 152.852752 83.779011 
L 160.053458 84.203493 
L 167.336315 86.235282 
L 174.67965 89.888187 
L 182.061094 95.166093 
L 189.457806 102.062763 
L 196.846704 110.561795 
L 204.204704 120.63674 
L 211.508962 132.251376 
L 218.737107 145.360133 
L 225.867469 159.908658 
" style="fill:none;stroke:#000000;stroke-width:0.5;"/>
    <path clip-path="url(#p50c8014827)" d="M 110.585478 116.372621 
L 116.720773 106.635186 
L 123.051165 98.173927 
L 129.564229 91.055785 
L 136.245925 85.34246 
L 143.080653 81.089527 
L 150.051343 78.345592 
L 157.139567 77.151509 
L 164.325679 77.539682 
L 171.588984 79.533468 
L 178.907918 83.146705 
L 186.260258 88.383364 
L 193.623341 95.237358 
L 200.974294 103.692497 
L 208.290269 113.722607 
L 215.548683 125.291792 
L 222.727445 138.35486 
L 229.805178 152.857877 
" style="fill:none;stroke:#000000;stroke-width:0.5;"/>
    <path clip-path="url(#p50c8014827)" d="M 114.850573 111.473197 
L 121.000031 101.734967 
L 127.339597 93.270253 
L 133.856729 86.145525 
L 140.537305 80.422045 
L 147.365683 76.154989 
L 154.324785 73.392617 
L 161.39622 72.175499 
L 168.560418 72.535828 
L 175.796796 74.496831 
L 183.083944 78.0723 
L 190.399829 83.266251 
L 197.72201 90.072738 
L 205.027868 98.4758 
L 212.294834 108.449585 
L 219.500625 119.958603 
L 226.623469 132.958147 
L 233.642322 147.394837 
" style="fill:none;stroke:#000000;stroke-width:0.5;"/>
    <path clip-path="url(#p50c8014827)" d="M 119.119719 108.074446 
L 125.277319 98.362052 
L 131.619782 89.918427 
L 138.134475 82.809375 
L 144.807223 77.095528 
L 151.622369 72.831489 
L 158.562864 70.065014 
L 165.610389 68.836249 
L 172.745487 69.177057 
L 179.947729 71.11044 
L 187.195902 74.650076 
L 194.468203 79.799988 
L 201.742456 86.554353 
L 208.996337 94.897463 
L 216.207598 104.80383 
L 223.354294 116.238448 
L 230.41501 129.157193 
L 237.369065 143.507365 
" style="fill:none;stroke:#000000;stroke-width:0.5;"/>
    <path clip-path="url(#p50c8014827)" d="M 123.380795 106.156479 
L 129.540471 96.495719 
L 135.879544 88.096955 
L 142.385313 81.025133 
L 149.043576 75.340078 
L 155.838694 71.095655 
L 162.75368 68.338963 
L 169.770321 67.109592 
L 176.869312 67.438964 
L 184.03042 69.349765 
L 191.232663 72.855496 
L 198.454512 77.960147 
L 205.674095 84.658011 
L 212.869422 92.933642 
L 220.018602 102.761963 
L 227.100068 114.108518 
L 234.092791 126.929866 
L 240.976487 141.174105 
" style="fill:none;stroke:#000000;stroke-width:0.5;"/>
    <path clip-path="url(#p50c8014827)" d="M 127.622059 105.691671 
L 133.777746 96.107305 
L 140.107171 87.776203 
L 146.597592 80.762277 
L 153.234808 75.124379 
L 160.003228 70.915479 
L 166.885961 68.181878 
L 173.864936 66.962488 
L 180.921034 67.288185 
L 188.034253 69.181256 
L 195.183885 72.654965 
L 202.348709 77.713232 
L 209.507197 84.350453 
L 216.637727 92.551462 
L 223.718802 102.291632 
L 230.729263 113.537121 
L 237.648499 126.245256 
L 244.456649 140.365047 
" style="fill:none;stroke:#000000;stroke-width:0.5;"/>
    <path clip-path="url(#p50c8014827)" d="M 131.832249 106.645209 
L 137.977916 97.160769 
L 144.291505 88.918984 
L 150.760256 81.98257 
L 157.369998 76.409251 
L 164.105217 72.250958 
L 170.949152 69.553067 
L 177.883904 68.353697 
L 184.890578 68.68308 
L 191.949437 70.563032 
L 199.040082 74.006521 
L 206.141636 79.017364 
L 213.232948 85.590053 
L 220.2928 93.709711 
L 227.300117 103.352196 
L 234.23418 114.484342 
L 241.074822 127.064325 
L 247.802631 141.042165 
" style="fill:none;stroke:#000000;stroke-width:0.5;"/>
    <path clip-path="url(#p50c8014827)" d="M 142.130356 99.61333 
L 148.422027 91.481222 
L 154.862926 84.640747 
L 161.438938 79.148361 
L 168.134659 75.054826 
L 174.933482 72.404476 
L 181.817717 71.234533 
L 188.768724 71.574502 
L 195.767065 73.445654 
L 202.792682 76.860614 
L 209.825074 81.823067 
L 216.843499 88.327588 
L 223.827172 96.359603 
L 230.755471 105.895488 
L 237.608139 116.902803 
L 244.365482 129.340646 
" style="fill:none;stroke:#000000;stroke-width:0.5;"/>
    <path clip-path="url(#p50c8014827)" d="M 146.225105 103.416168 
L 152.488923 95.412677 
L 158.895964 88.685265 
L 165.432199 83.288994 
L 172.082357 79.273343 
L 178.830022 76.681497 
L 185.657739 75.549692 
L 192.547152 75.906628 
L 199.479157 77.77297 
L 206.434063 81.160957 
L 213.391777 86.074115 
L 220.331992 92.507092 
L 227.234385 100.445628 
L 234.078809 109.866647 
L 240.845496 120.738478 
L 247.51524 133.021207 
" style="fill:none;stroke:#000000;stroke-width:0.5;"/>
    <path clip-path="url(#p50c8014827)" d="M 156.483139 100.657712 
L 162.850524 94.059094 
L 169.34117 88.772867 
L 175.939972 84.847127 
L 182.630725 82.32382 
L 189.396241 81.238115 
L 196.218478 81.61784 
L 203.078688 83.483004 
L 209.957579 86.845419 
L 216.835491 91.708427 
L 223.692578 98.066748 
L 230.508999 105.90644 
L 237.265107 115.204998 
L 243.941639 125.931565 
" style="fill:none;stroke:#000000;stroke-width:0.5;"/>
    <path clip-path="url(#p50c8014827)" d="M 166.718589 100.700532 
L 173.158104 95.53697 
L 179.700046 91.71202 
L 186.328452 89.266313 
L 193.026426 88.233885 
L 199.776264 88.641633 
L 206.559601 90.508867 
L 213.357567 93.84694 
L 220.150958 98.658992 
L 226.92041 104.939805 
L 233.646585 112.675766 
L 240.310354 121.84496 
" style="fill:none;stroke:#000000;stroke-width:0.5;"/>
    <path clip-path="url(#p50c8014827)" d="M 183.356021 99.799951 
L 189.916985 97.439905 
L 196.542433 96.467121 
L 203.215027 96.907521 
L 209.916804 98.779677 
L 216.629339 102.094459 
L 223.333902 106.854789 
L 230.011631 113.055504 
" style="fill:none;stroke:#000000;stroke-width:0.5;"/>
    <path clip-path="url(#p50c8014827)" style="fill:none;stroke:#000000;stroke-width:0.5;"/>
    <path clip-path="url(#p50c8014827)" style="fill:none;stroke:#000000;stroke-width:0.5;"/>
    <path clip-path="url(#p50c8014827)" d="M 102.117216 130.7118 
L 106.336836 122.78443 
L 110.585478 116.372621 
L 114.850573 111.473197 
L 119.119719 108.074446 
L 123.380795 106.156479 
L 127.622059 105.691671 
L 131.832249 106.645209 
" style="fill:none;stroke:#000000;stroke-width:0.5;"/>
    <path clip-path="url(#p50c8014827)" d="M 99.836061 141.622234 
L 103.996917 130.578614 
L 108.206485 121.057993 
L 112.452028 113.075018 
L 116.720773 106.635186 
L 121.000031 101.734967 
L 125.277319 98.362052 
L 129.540471 96.495719 
L 133.777746 96.107305 
L 137.977916 97.160769 
L 142.130356 99.61333 
L 146.225105 103.416168 
" style="fill:none;stroke:#000000;stroke-width:0.5;"/>
    <path clip-path="url(#p50c8014827)" d="M 101.930071 146.100365 
L 106.068633 133.42781 
L 110.262851 122.279375 
L 114.499949 112.67927 
L 118.767022 104.642315 
L 123.051165 98.173927 
L 127.339597 93.270253 
L 131.619782 89.918427 
L 135.879544 88.096955 
L 140.107171 87.776203 
L 144.291505 88.918984 
L 148.422027 91.481222 
L 152.488923 95.412677 
L 156.483139 100.657712 
" style="fill:none;stroke:#000000;stroke-width:0.5;"/>
    <path clip-path="url(#p50c8014827)" d="M 104.215759 153.665137 
L 108.327387 139.358994 
L 112.50141 126.565424 
L 116.725094 115.318516 
L 120.985485 105.642886 
L 125.269533 97.553524 
L 129.564229 91.055785 
L 133.856729 86.145525 
L 138.134475 82.809375 
L 142.385313 81.025133 
L 146.597592 80.762277 
L 150.760256 81.98257 
L 154.862926 84.640747 
L 158.895964 88.685265 
L 162.850524 94.059094 
L 166.718589 100.700532 
" style="fill:none;stroke:#000000;stroke-width:0.5;"/>
    <path clip-path="url(#p50c8014827)" d="M 110.765681 148.439092 
L 114.915179 134.001832 
L 119.12093 121.096525 
L 123.370006 109.757857 
L 127.649294 100.010826 
L 131.945629 91.870589 
L 136.245925 85.34246 
L 140.537305 80.422045 
L 144.807223 77.095528 
L 149.043576 75.340078 
L 153.234808 75.124379 
L 157.369998 76.409251 
L 161.438938 79.148361 
L 165.432199 83.288994 
L 169.34117 88.772867 
L 173.158104 95.53697 
" style="fill:none;stroke:#000000;stroke-width:0.5;"/>
    <path clip-path="url(#p50c8014827)" d="M 113.373513 160.699155 
L 117.494715 144.639476 
L 121.678505 130.083632 
L 125.912066 117.076415 
L 130.182298 105.653054 
L 134.475956 95.838907 
L 138.779785 87.649301 
L 143.080653 81.089527 
L 147.365683 76.154989 
L 151.622369 72.831489 
L 155.838694 71.095655 
L 160.003228 70.915479 
L 164.105217 72.250958 
L 168.134659 75.054826 
L 172.082357 79.273343 
L 175.939972 84.847127 
L 179.700046 91.71202 
L 183.356021 99.799951 
" style="fill:none;stroke:#000000;stroke-width:0.5;"/>
    <path clip-path="url(#p50c8014827)" d="M 120.228173 158.49158 
L 124.386502 142.313389 
L 128.600812 127.652177 
L 132.858098 114.553385 
L 137.145114 103.052737 
L 141.448509 93.175925 
L 145.754968 84.938445 
L 150.051343 78.345592 
L 154.324785 73.392617 
L 158.562864 70.065014 
L 162.75368 68.338963 
L 166.885961 68.181878 
L 170.949152 69.553067 
L 174.933482 72.404476 
L 178.830022 76.681497 
L 182.630725 82.32382 
L 186.328452 89.266313 
L 189.916985 97.439905 
" style="fill:none;stroke:#000000;stroke-width:0.5;"/>
    <path clip-path="url(#p50c8014827)" d="M 127.231357 157.780164 
L 131.423163 141.500239 
L 135.664042 126.747491 
L 139.940824 113.567929 
L 144.240141 101.997719 
L 148.548567 92.062858 
L 152.852752 83.779011 
L 157.139567 77.151509 
L 161.39622 72.175499 
L 165.610389 68.836249 
L 169.770321 67.109592 
L 173.864936 66.962488 
L 177.883904 68.353697 
L 181.817717 71.234533 
L 185.657739 75.549692 
L 189.396241 81.238115 
L 193.026426 88.233885 
L 196.542433 96.467121 
" style="fill:none;stroke:#000000;stroke-width:0.5;"/>
    <path clip-path="url(#p50c8014827)" d="M 134.363987 158.59526 
L 138.585426 142.231044 
L 142.848765 127.401138 
L 147.140693 114.152036 
L 151.447747 102.520284 
L 155.756452 92.532158 
L 160.053458 84.203493 
L 164.325679 77.539682 
L 168.560418 72.535828 
L 172.745487 69.177057 
L 176.869312 67.438964 
L 180.921034 67.288185 
L 184.890578 68.68308 
L 188.768724 71.574502 
L 192.547152 75.906628 
L 196.218478 81.61784 
L 199.776264 88.641633 
L 203.215027 96.907521 
" style="fill:none;stroke:#000000;stroke-width:0.5;"/>
    <path clip-path="url(#p50c8014827)" d="M 141.605732 160.958343 
L 145.852786 144.527842 
L 150.134339 129.635629 
L 154.436968 116.328588 
L 158.747141 104.643587 
L 163.051364 94.60715 
L 167.336315 86.235282 
L 171.588984 79.533468 
L 175.796796 74.496831 
L 179.947729 71.11044 
L 184.03042 69.349765 
L 188.034253 69.181256 
L 191.949437 70.563032 
L 195.767065 73.445654 
L 199.479157 77.77297 
L 203.078688 83.483004 
L 206.559601 90.508867 
L 209.916804 98.779677 
" style="fill:none;stroke:#000000;stroke-width:0.5;"/>
    <path clip-path="url(#p50c8014827)" d="M 148.93519 164.88156 
L 153.203685 148.403229 
L 157.499097 133.463943 
L 161.807912 120.11088 
L 166.116563 108.381168 
L 170.411563 98.301545 
L 174.67965 89.888187 
L 178.907918 83.146705 
L 183.083944 78.0723 
L 187.195902 74.650076 
L 191.232663 72.855496 
L 195.183885 72.654965 
L 199.040082 74.006521 
L 202.792682 76.860614 
L 206.434063 81.160957 
L 209.957579 86.845419 
L 213.357567 93.84694 
L 216.629339 102.094459 
" style="fill:none;stroke:#000000;stroke-width:0.5;"/>
    <path clip-path="url(#p50c8014827)" d="M 156.33009 170.367397 
L 160.615722 153.860023 
L 164.920547 138.889191 
L 169.230997 125.502279 
L 173.53349 113.736608 
L 177.814581 103.619097 
L 182.061094 95.166093 
L 186.260258 88.383364 
L 190.399829 83.266251 
L 194.468203 79.799988 
L 198.454512 77.960147 
L 202.348709 77.713232 
L 206.141636 79.017364 
L 209.825074 81.823067 
L 213.391777 86.074115 
L 216.835491 91.708427 
L 220.150958 98.658992 
L 223.333902 106.854789 
" style="fill:none;stroke:#000000;stroke-width:0.5;"/>
    <path clip-path="url(#p50c8014827)" d="M 163.767512 177.408504 
L 168.065866 160.891077 
L 172.375604 145.904426 
L 176.683124 132.49603 
L 180.974863 120.703335 
L 185.237444 110.553407 
L 189.457806 102.062763 
L 193.623341 95.237358 
L 197.72201 90.072738 
L 201.742456 86.554353 
L 205.674095 84.658011 
L 209.507197 84.350453 
L 213.232948 85.590053 
L 216.843499 88.327588 
L 220.331992 92.507092 
L 223.692578 98.066748 
L 226.92041 104.939805 
L 230.011631 113.055504 
" style="fill:none;stroke:#000000;stroke-width:0.5;"/>
    <path clip-path="url(#p50c8014827)" d="M 175.530704 169.479252 
L 179.840821 154.492608 
L 184.140865 141.075218 
L 188.417321 129.264582 
L 192.656906 119.08788 
L 196.846704 110.561795 
L 200.974294 103.692497 
L 205.027868 98.4758 
L 208.996337 94.897463 
L 212.869422 92.933642 
L 216.637727 92.551462 
L 220.2928 93.709711 
L 223.827172 96.359603 
L 227.234385 100.445628 
L 230.508999 105.90644 
L 233.646585 112.675766 
" style="fill:none;stroke:#000000;stroke-width:0.5;"/>
    <path clip-path="url(#p50c8014827)" d="M 182.986675 179.597542 
L 187.292636 164.626732 
L 191.580705 151.212893 
L 195.837444 139.393513 
L 200.049693 129.195847 
L 204.204704 120.63674 
L 208.290269 113.722607 
L 212.294834 108.449585 
L 216.207598 104.80383 
L 220.018602 102.761963 
L 223.718802 102.291632 
L 227.300117 103.352196 
L 230.755471 105.895488 
L 234.078809 109.866647 
L 237.265107 115.204998 
L 240.310354 121.84496 
" style="fill:none;stroke:#000000;stroke-width:0.5;"/>
    <path clip-path="url(#p50c8014827)" d="M 194.707617 176.270106 
L 198.979289 162.872351 
L 203.212001 151.053498 
L 207.392743 140.84084 
L 211.508962 132.251376 
L 215.548683 125.291792 
L 219.500625 119.958603 
L 223.354294 116.238448 
L 227.100068 114.108518 
L 230.729263 113.537121 
L 234.23418 114.484342 
L 237.608139 116.902803 
L 240.845496 120.738478 
L 243.941639 125.931565 
" style="fill:none;stroke:#000000;stroke-width:0.5;"/>
    <path clip-path="url(#p50c8014827)" d="M 206.313664 176.007571 
L 210.518189 164.198551 
L 214.663449 153.977023 
L 218.737107 145.360133 
L 222.727445 138.35486 
L 226.623469 132.958147 
L 230.41501 129.157193 
L 234.092791 126.929866 
L 237.648499 126.245256 
L 241.074822 127.064325 
L 244.365482 129.340646 
L 247.51524 133.021207 
" style="fill:none;stroke:#000000;stroke-width:0.5;"/>
    <path clip-path="url(#p50c8014827)" d="M 221.839884 168.549761 
L 225.867469 159.908658 
L 229.805178 152.857877 
L 233.642322 147.394837 
L 237.369065 143.507365 
L 240.976487 141.174105 
L 244.456649 140.365047 
L 247.802631 141.042165 
" style="fill:none;stroke:#000000;stroke-width:0.5;"/>
    <path clip-path="url(#p50c8014827)" style="fill:none;stroke:#000000;stroke-width:0.5;"/>
   </g>
  </g>
  <g id="patch_3">
   <path d="M 287.46 189 
L 450.54 189 
L 450.54 25.92 
L 287.46 25.92 
z
" style="fill:none;"/>
  </g>
  <g id="axes_2">
   <g id="Line3DCollection_2">
    <path clip-path="url(#p97026dad99)" style="fill:none;stroke:#000000;stroke-width:0.5;"/>
    <path clip-path="url(#p97026dad99)" d="M 310.153546 156.805136 
L 317.291873 161.832961 
L 324.434202 165.982739 
L 331.59379 169.25446 
L 338.784133 171.64485 
L 346.019053 173.147289 
L 353.312786 173.751704 
L 360.680088 173.444418 
" style="fill:none;stroke:#000000;stroke-width:0.5;"/>
    <path clip-path="url(#p97026dad99)" d="M 300.176112 132.96375 
L 307.33428 139.733585 
L 314.472963 145.610849 
L 321.605168 150.601855 
L 328.74398 154.709702 
L 335.902644 157.934259 
L 343.094652 160.272116 
L 350.333827 161.716504 
L 357.63442 162.257183 
L 365.01121 161.880293 
L 372.479607 160.568167 
L 380.055776 158.299097 
" style="fill:none;stroke:#000000;stroke-width:0.5;"/>
    <path clip-path="url(#p97026dad99)" d="M 297.36463 115.148787 
L 304.536892 122.794519 
L 311.679379 129.534479 
L 318.805038 135.37811 
L 325.92683 140.331628 
L 333.057799 144.398027 
L 340.211162 147.577066 
L 347.400389 149.865215 
L 354.63929 151.255583 
L 361.94211 151.737794 
L 369.323629 151.297847 
L 376.799268 149.917922 
L 384.38521 147.57615 
L 392.098526 144.246336 
" style="fill:none;stroke:#000000;stroke-width:0.5;"/>
    <path clip-path="url(#p97026dad99)" d="M 294.571486 97.450017 
L 301.761131 105.986402 
L 308.91078 113.601896 
L 316.033371 120.309111 
L 323.14178 126.11739 
L 330.248903 131.032848 
L 337.367732 135.058383 
L 344.511438 138.193654 
L 351.69345 140.435033 
L 358.927549 141.775528 
L 366.227955 142.204663 
L 373.60943 141.708334 
L 381.087385 140.268618 
L 388.677996 137.86354 
L 396.398335 134.4668 
L 404.266513 130.047434 
" style="fill:none;stroke:#000000;stroke-width:0.5;"/>
    <path clip-path="url(#p97026dad99)" d="M 299.006745 89.307722 
L 306.166834 97.811181 
L 313.289734 105.392508 
L 320.388286 112.064202 
L 327.47528 117.8355 
L 334.563533 122.712419 
L 341.665968 126.697762 
L 348.795694 129.791103 
L 355.966085 131.988734 
L 363.190873 133.283587 
L 370.484236 133.665118 
L 377.860899 133.119161 
L 385.336239 131.627737 
L 392.926405 129.168824 
L 400.648443 125.716083 
L 408.520445 121.23852 
" style="fill:none;stroke:#000000;stroke-width:0.5;"/>
    <path clip-path="url(#p97026dad99)" d="M 296.273489 72.75699 
L 303.447212 82.160446 
L 310.573705 90.626002 
L 317.665813 98.169343 
L 324.736268 104.802842 
L 331.797757 110.535623 
L 338.863006 115.373603 
L 345.944853 119.319501 
L 353.056328 122.372815 
L 360.210735 124.529777 
L 367.421741 125.783268 
L 374.703462 126.122707 
L 382.070565 125.533907 
L 389.538377 123.998878 
L 397.122993 121.49561 
L 404.841412 117.997788 
L 412.711676 113.474468 
L 420.753029 107.889684 
" style="fill:none;stroke:#000000;stroke-width:0.5;"/>
    <path clip-path="url(#p97026dad99)" d="M 300.751592 66.647839 
L 307.884868 76.007339 
L 314.973842 84.430153 
L 322.031225 91.931809 
L 329.069621 98.524542 
L 336.101606 104.217358 
L 343.139798 109.016077 
L 350.196935 112.923337 
L 357.285955 115.938573 
L 364.420076 118.057974 
L 371.612879 119.274396 
L 378.878405 119.577255 
L 386.231245 118.952377 
L 393.68665 117.381813 
L 401.260644 114.843614 
L 408.970152 111.311558 
L 416.833141 106.754821 
L 424.868778 101.137596 
" style="fill:none;stroke:#000000;stroke-width:0.5;"/>
    <path clip-path="url(#p97026dad99)" d="M 305.222818 61.534309 
L 312.311861 70.84403 
L 319.359521 79.219415 
L 326.378362 86.675816 
L 333.380851 93.22532 
L 340.379434 98.876812 
L 347.38661 103.636013 
L 354.415004 107.505486 
L 361.477446 110.484618 
L 368.587051 112.569571 
L 375.757304 113.753201 
L 383.002148 114.02495 
L 390.336079 113.370696 
L 397.774254 111.772575 
L 405.332605 109.208756 
L 413.027958 105.653167 
L 420.878181 101.075179 
L 428.902335 95.439225 
" style="fill:none;stroke:#000000;stroke-width:0.5;"/>
    <path clip-path="url(#p97026dad99)" d="M 309.679373 57.40843 
L 316.720546 66.662743 
L 323.723237 74.986175 
L 330.699849 82.393889 
L 337.662702 88.897814 
L 344.624101 94.506707 
L 351.596409 99.226191 
L 358.592128 103.058763 
L 365.623964 106.00377 
L 372.704916 108.057367 
L 379.848354 109.212433 
L 387.068107 109.458463 
L 394.378562 108.781428 
L 401.794761 107.16359 
L 409.332519 104.583285 
L 417.008545 101.014655 
L 424.840581 96.427334 
L 432.847553 90.786071 
" style="fill:none;stroke:#000000;stroke-width:0.5;"/>
    <path clip-path="url(#p97026dad99)" d="M 314.1137 54.25895 
L 321.103522 63.452437 
L 328.057736 71.719571 
L 334.988576 79.075311 
L 341.908197 85.531418 
L 348.828752 91.096519 
L 355.762462 95.776139 
L 362.721685 99.572714 
L 369.718996 102.485564 
L 376.76726 104.510852 
L 383.879718 105.641502 
L 391.070072 105.867094 
L 398.352576 105.173724 
L 405.742143 103.543821 
L 413.254452 100.955938 
L 420.90607 97.384487 
L 428.714588 92.799429 
L 436.698773 87.165909 
" style="fill:none;stroke:#000000;stroke-width:0.5;"/>
    <path clip-path="url(#p97026dad99)" d="M 318.518515 52.071504 
L 325.453672 61.198973 
L 332.35606 69.405652 
L 339.237729 76.706283 
L 346.110664 83.11245 
L 352.986854 88.632644 
L 359.878362 93.272296 
L 366.797396 97.033784 
L 373.756381 99.916415 
L 380.76804 101.916374 
L 387.845468 103.026653 
L 395.002222 103.236943 
L 402.252413 102.533495 
L 409.610803 100.898948 
L 417.092915 98.312118 
L 424.715153 94.747739 
L 432.494936 90.176162 
L 440.450848 84.562997 
" style="fill:none;stroke:#000000;stroke-width:0.5;"/>
    <path clip-path="url(#p97026dad99)" d="M 322.88684 50.828796 
L 329.764191 59.885297 
L 336.611566 68.027564 
L 343.440825 75.270106 
L 350.263771 81.624326 
L 357.092217 87.098576 
L 363.93806 91.698192 
L 370.813344 95.425502 
L 377.730336 98.279805 
L 384.7016 100.25733 
L 391.740073 101.351152 
L 398.859156 101.551099 
L 406.072795 100.843611 
L 413.395586 99.211572 
L 420.84288 96.634103 
L 428.430897 93.08631 
L 436.176863 88.538993 
L 444.09915 82.958292 
" style="fill:none;stroke:#000000;stroke-width:0.5;"/>
    <path clip-path="url(#p97026dad99)" d="M 327.212036 50.510814 
L 334.028616 59.491647 
L 340.817962 67.565749 
L 347.591734 74.747387 
L 354.361542 81.04777 
L 361.13902 86.47511 
L 367.935882 91.034651 
L 374.764001 94.728675 
L 381.635473 97.556485 
L 388.562691 99.514363 
L 395.558425 100.595491 
L 402.635899 100.789855 
L 409.808886 100.084113 
L 417.091798 98.461428 
L 424.499795 95.901265 
L 432.048896 92.379152 
L 439.756112 87.866387 
L 447.639582 82.329701 
" style="fill:none;stroke:#000000;stroke-width:0.5;"/>
    <path clip-path="url(#p97026dad99)" d="M 338.240845 59.995767 
L 344.969321 67.998164 
L 351.684697 75.116244 
L 358.398386 81.361019 
L 365.121826 86.740556 
L 371.866548 91.260005 
L 378.644239 94.921611 
L 385.466814 97.72469 
L 392.346486 99.665589 
L 399.295842 100.737614 
L 406.327922 100.930932 
L 413.456307 100.232444 
L 420.695214 98.625622 
L 428.059593 96.090315 
L 435.565245 92.602512 
L 443.228945 88.134061 
" style="fill:none;stroke:#000000;stroke-width:0.5;"/>
    <path clip-path="url(#p97026dad99)" d="M 342.395164 61.373135 
L 349.060106 69.300505 
L 355.714351 76.352542 
L 362.369105 82.540053 
L 369.035605 87.870959 
L 375.725187 92.35032 
L 382.449345 95.980345 
L 389.219805 98.760371 
L 396.048588 100.686824 
L 402.948086 101.753149 
L 409.931145 101.949713 
L 417.011141 101.263686 
L 424.202079 99.678877 
L 431.518688 97.175551 
L 438.976533 93.730197 
L 446.592137 89.315254 
" style="fill:none;stroke:#000000;stroke-width:0.5;"/>
    <path clip-path="url(#p97026dad99)" d="M 353.085179 71.44644 
L 359.675734 78.430116 
L 366.268909 84.558824 
L 372.875735 89.840337 
L 379.507344 94.279625 
L 386.175031 97.878866 
L 392.890321 100.637426 
L 399.665035 102.551821 
L 406.511364 103.615647 
L 413.441942 103.819492 
L 420.469933 103.150813 
L 427.609116 101.593784 
L 434.873984 99.129115 
L 442.279853 95.733829 
" style="fill:none;stroke:#000000;stroke-width:0.5;"/>
    <path clip-path="url(#p97026dad99)" d="M 363.564296 81.321013 
L 370.093424 87.389496 
L 376.638014 92.620916 
L 383.208988 97.020155 
L 389.817435 100.589364 
L 396.47467 103.327945 
L 403.192307 105.232513 
L 409.982324 106.29683 
L 416.857138 106.511718 
L 423.829686 105.864942 
L 430.913512 104.341062 
L 438.122861 101.921259 
" style="fill:none;stroke:#000000;stroke-width:0.5;"/>
    <path clip-path="url(#p97026dad99)" d="M 380.318661 96.183364 
L 386.826512 100.542583 
L 393.373121 104.082463 
L 399.969591 106.802447 
L 406.627319 108.699258 
L 413.358061 109.766834 
L 420.174008 109.996247 
L 427.087863 109.375583 
" style="fill:none;stroke:#000000;stroke-width:0.5;"/>
    <path clip-path="url(#p97026dad99)" style="fill:none;stroke:#000000;stroke-width:0.5;"/>
    <path clip-path="url(#p97026dad99)" style="fill:none;stroke:#000000;stroke-width:0.5;"/>
    <path clip-path="url(#p97026dad99)" d="M 296.273489 72.75699 
L 300.751592 66.647839 
L 305.222818 61.534309 
L 309.679373 57.40843 
L 314.1137 54.25895 
L 318.518515 52.071504 
L 322.88684 50.828796 
L 327.212036 50.510814 
" style="fill:none;stroke:#000000;stroke-width:0.5;"/>
    <path clip-path="url(#p97026dad99)" d="M 294.571486 97.450017 
L 299.006745 89.307722 
L 303.447212 82.160446 
L 307.884868 76.007339 
L 312.311861 70.84403 
L 316.720546 66.662743 
L 321.103522 63.452437 
L 325.453672 61.198973 
L 329.764191 59.885297 
L 334.028616 59.491647 
L 338.240845 59.995767 
L 342.395164 61.373135 
" style="fill:none;stroke:#000000;stroke-width:0.5;"/>
    <path clip-path="url(#p97026dad99)" d="M 297.36463 115.148787 
L 301.761131 105.986402 
L 306.166834 97.811181 
L 310.573705 90.626002 
L 314.973842 84.430153 
L 319.359521 79.219415 
L 323.723237 74.986175 
L 328.057736 71.719571 
L 332.35606 69.405652 
L 336.611566 68.027564 
L 340.817962 67.565749 
L 344.969321 67.998164 
L 349.060106 69.300505 
L 353.085179 71.44644 
" style="fill:none;stroke:#000000;stroke-width:0.5;"/>
    <path clip-path="url(#p97026dad99)" d="M 300.176112 132.96375 
L 304.536892 122.794519 
L 308.91078 113.601896 
L 313.289734 105.392508 
L 317.665813 98.169343 
L 322.031225 91.931809 
L 326.378362 86.675816 
L 330.699849 82.393889 
L 334.988576 79.075311 
L 339.237729 76.706283 
L 343.440825 75.270106 
L 347.591734 74.747387 
L 351.684697 75.116244 
L 355.714351 76.352542 
L 359.675734 78.430116 
L 363.564296 81.321013 
" style="fill:none;stroke:#000000;stroke-width:0.5;"/>
    <path clip-path="url(#p97026dad99)" d="M 307.33428 139.733585 
L 311.679379 129.534479 
L 316.033371 120.309111 
L 320.388286 112.064202 
L 324.736268 104.802842 
L 329.069621 98.524542 
L 333.380851 93.22532 
L 337.662702 88.897814 
L 341.908197 85.531418 
L 346.110664 83.11245 
L 350.263771 81.624326 
L 354.361542 81.04777 
L 358.398386 81.361019 
L 362.369105 82.540053 
L 366.268909 84.558824 
L 370.093424 87.389496 
" style="fill:none;stroke:#000000;stroke-width:0.5;"/>
    <path clip-path="url(#p97026dad99)" d="M 310.153546 156.805136 
L 314.472963 145.610849 
L 318.805038 135.37811 
L 323.14178 126.11739 
L 327.47528 117.8355 
L 331.797757 110.535623 
L 336.101606 104.217358 
L 340.379434 98.876812 
L 344.624101 94.506707 
L 348.828752 91.096519 
L 352.986854 88.632644 
L 357.092217 87.098576 
L 361.13902 86.47511 
L 365.121826 86.740556 
L 369.035605 87.870959 
L 372.875735 89.840337 
L 376.638014 92.620916 
L 380.318661 96.183364 
" style="fill:none;stroke:#000000;stroke-width:0.5;"/>
    <path clip-path="url(#p97026dad99)" d="M 317.291873 161.832961 
L 321.605168 150.601855 
L 325.92683 140.331628 
L 330.248903 131.032848 
L 334.563533 122.712419 
L 338.863006 115.373603 
L 343.139798 109.016077 
L 347.38661 103.636013 
L 351.596409 99.226191 
L 355.762462 95.776139 
L 359.878362 93.272296 
L 363.93806 91.698192 
L 367.935882 91.034651 
L 371.866548 91.260005 
L 375.725187 92.35032 
L 379.507344 94.279625 
L 383.208988 97.020155 
L 386.826512 100.542583 
" style="fill:none;stroke:#000000;stroke-width:0.5;"/>
    <path clip-path="url(#p97026dad99)" d="M 324.434202 165.982739 
L 328.74398 154.709702 
L 333.057799 144.398027 
L 337.367732 135.058383 
L 341.665968 126.697762 
L 345.944853 119.319501 
L 350.196935 112.923337 
L 354.415004 107.505486 
L 358.592128 103.058763 
L 362.721685 99.572714 
L 366.797396 97.033784 
L 370.813344 95.425502 
L 374.764001 94.728675 
L 378.644239 94.921611 
L 382.449345 95.980345 
L 386.175031 97.878866 
L 389.817435 100.589364 
L 393.373121 104.082463 
" style="fill:none;stroke:#000000;stroke-width:0.5;"/>
    <path clip-path="url(#p97026dad99)" d="M 331.59379 169.25446 
L 335.902644 157.934259 
L 340.211162 147.577066 
L 344.511438 138.193654 
L 348.795694 129.791103 
L 353.056328 122.372815 
L 357.285955 115.938573 
L 361.477446 110.484618 
L 365.623964 106.00377 
L 369.718996 102.485564 
L 373.756381 99.916415 
L 377.730336 98.279805 
L 381.635473 97.556485 
L 385.466814 97.72469 
L 389.219805 98.760371 
L 392.890321 100.637426 
L 396.47467 103.327945 
L 399.969591 106.802447 
" style="fill:none;stroke:#000000;stroke-width:0.5;"/>
    <path clip-path="url(#p97026dad99)" d="M 338.784133 171.64485 
L 343.094652 160.272116 
L 347.400389 149.865215 
L 351.69345 140.435033 
L 355.966085 131.988734 
L 360.210735 124.529777 
L 364.420076 118.057974 
L 368.587051 112.569571 
L 372.704916 108.057367 
L 376.76726 104.510852 
L 380.76804 101.916374 
L 384.7016 100.25733 
L 388.562691 99.514363 
L 392.346486 99.665589 
L 396.048588 100.686824 
L 399.665035 102.551821 
L 403.192307 105.232513 
L 406.627319 108.699258 
" style="fill:none;stroke:#000000;stroke-width:0.5;"/>
    <path clip-path="url(#p97026dad99)" d="M 346.019053 173.147289 
L 350.333827 161.716504 
L 354.63929 151.255583 
L 358.927549 141.775528 
L 363.190873 133.283587 
L 367.421741 125.783268 
L 371.612879 119.274396 
L 375.757304 113.753201 
L 379.848354 109.212433 
L 383.879718 105.641502 
L 387.845468 103.026653 
L 391.740073 101.351152 
L 395.558425 100.595491 
L 399.295842 100.737614 
L 402.948086 101.753149 
L 406.511364 103.615647 
L 409.982324 106.29683 
L 413.358061 109.766834 
" style="fill:none;stroke:#000000;stroke-width:0.5;"/>
    <path clip-path="url(#p97026dad99)" d="M 353.312786 173.751704 
L 357.63442 162.257183 
L 361.94211 151.737794 
L 366.227955 142.204663 
L 370.484236 133.665118 
L 374.703462 126.122707 
L 378.878405 119.577255 
L 383.002148 114.02495 
L 387.068107 109.458463 
L 391.070072 105.867094 
L 395.002222 103.236943 
L 398.859156 101.551099 
L 402.635899 100.789855 
L 406.327922 100.930932 
L 409.931145 101.949713 
L 413.441942 103.819492 
L 416.857138 106.511718 
L 420.174008 109.996247 
" style="fill:none;stroke:#000000;stroke-width:0.5;"/>
    <path clip-path="url(#p97026dad99)" d="M 360.680088 173.444418 
L 365.01121 161.880293 
L 369.323629 151.297847 
L 373.60943 141.708334 
L 377.860899 133.119161 
L 382.070565 125.533907 
L 386.231245 118.952377 
L 390.336079 113.370696 
L 394.378562 108.781428 
L 398.352576 105.173724 
L 402.252413 102.533495 
L 406.072795 100.843611 
L 409.808886 100.084113 
L 413.456307 100.232444 
L 417.011141 101.263686 
L 420.469933 103.150813 
L 423.829686 105.864942 
L 427.087863 109.375583 
" style="fill:none;stroke:#000000;stroke-width:0.5;"/>
    <path clip-path="url(#p97026dad99)" d="M 372.479607 160.568167 
L 376.799268 149.917922 
L 381.087385 140.268618 
L 385.336239 131.627737 
L 389.538377 123.998878 
L 393.68665 117.381813 
L 397.774254 111.772575 
L 401.794761 107.16359 
L 405.742143 103.543821 
L 409.610803 100.898948 
L 413.395586 99.211572 
L 417.091798 98.461428 
L 420.695214 98.625622 
L 424.202079 99.678877 
L 427.609116 101.593784 
L 430.913512 104.341062 
" style="fill:none;stroke:#000000;stroke-width:0.5;"/>
    <path clip-path="url(#p97026dad99)" d="M 380.055776 158.299097 
L 384.38521 147.57615 
L 388.677996 137.86354 
L 392.926405 129.168824 
L 397.122993 121.49561 
L 401.260644 114.843614 
L 405.332605 109.208756 
L 409.332519 104.583285 
L 413.254452 100.955938 
L 417.092915 98.312118 
L 420.84288 96.634103 
L 424.499795 95.901265 
L 428.059593 96.090315 
L 431.518688 97.175551 
L 434.873984 99.129115 
L 438.122861 101.921259 
" style="fill:none;stroke:#000000;stroke-width:0.5;"/>
    <path clip-path="url(#p97026dad99)" d="M 392.098526 144.246336 
L 396.398335 134.4668 
L 400.648443 125.716083 
L 404.841412 117.997788 
L 408.970152 111.311558 
L 413.027958 105.653167 
L 417.008545 101.014655 
L 420.90607 97.384487 
L 424.715153 94.747739 
L 428.430897 93.08631 
L 432.048896 92.379152 
L 435.565245 92.602512 
L 438.976533 93.730197 
L 442.279853 95.733829 
" style="fill:none;stroke:#000000;stroke-width:0.5;"/>
    <path clip-path="url(#p97026dad99)" d="M 404.266513 130.047434 
L 408.520445 121.23852 
L 412.711676 113.474468 
L 416.833141 106.754821 
L 420.878181 101.075179 
L 424.840581 96.427334 
L 428.714588 92.799429 
L 432.494936 90.176162 
L 436.176863 88.538993 
L 439.756112 87.866387 
L 443.228945 88.134061 
L 446.592137 89.315254 
" style="fill:none;stroke:#000000;stroke-width:0.5;"/>
    <path clip-path="url(#p97026dad99)" d="M 420.753029 107.889684 
L 424.868778 101.137596 
L 428.902335 95.439225 
L 432.847553 90.786071 
L 436.698773 87.165909 
L 440.450848 84.562997 
L 444.09915 82.958292 
L 447.639582 82.329701 
" style="fill:none;stroke:#000000;stroke-width:0.5;"/>
    <path clip-path="url(#p97026dad99)" style="fill:none;stroke:#000000;stroke-width:0.5;"/>
   </g>
  </g>
  <g id="patch_4">
   <path d="M 484.401176 189 
L 647.481176 189 
L 647.481176 25.92 
L 484.401176 25.92 
z
" style="fill:none;"/>
  </g>
  <g id="axes_3">
   <g id="Line3DCollection_3">
    <path clip-path="url(#p730be585ee)" style="fill:none;stroke:#000000;stroke-width:0.5;"/>
    <path clip-path="url(#p730be585ee)" d="M 504.593592 96.36538 
L 512.091505 103.430189 
L 519.553841 108.882489 
L 527.004397 112.729346 
L 534.467153 114.96752 
L 541.966536 115.583257 
L 549.527692 114.551914 
L 557.176786 111.837382 
" style="fill:none;stroke:#000000;stroke-width:0.5;"/>
    <path clip-path="url(#p730be585ee)" d="M 494.933297 86.868162 
L 502.448599 97.047985 
L 509.887375 105.606276 
L 517.27307 112.569908 
L 524.628845 117.955741 
L 531.97782 121.77074 
L 539.343319 124.011946 
L 546.749123 124.666287 
L 554.219733 123.710211 
L 561.780656 121.109157 
L 569.458716 116.81681 
L 577.282402 110.774137 
" style="fill:none;stroke:#000000;stroke-width:0.5;"/>
    <path clip-path="url(#p730be585ee)" d="M 492.735091 82.880398 
L 500.229667 94.53165 
L 507.631043 104.556659 
L 514.962472 112.991479 
L 522.246728 119.862217 
L 529.506338 125.185293 
L 536.763821 128.967568 
L 544.041916 131.206306 
L 551.363832 131.889002 
L 558.753498 130.993035 
L 566.23584 128.485161 
L 573.837079 124.320807 
L 581.585068 118.443162 
L 589.509666 110.782011 
" style="fill:none;stroke:#000000;stroke-width:0.5;"/>
    <path clip-path="url(#p730be585ee)" d="M 490.431586 75.800468 
L 497.926114 88.928499 
L 505.310913 100.41318 
L 512.609263 110.299644 
L 519.843776 118.622963 
L 527.036625 125.408554 
L 534.209777 130.672444 
L 541.385212 134.421378 
L 548.585156 136.652798 
L 555.832309 137.354668 
L 563.150097 136.50515 
L 570.562933 134.072116 
L 578.096511 130.01248 
L 585.778127 124.271322 
L 593.637045 116.780785 
L 601.704912 107.458692 
" style="fill:none;stroke:#000000;stroke-width:0.5;"/>
    <path clip-path="url(#p730be585ee)" d="M 495.526745 80.30762 
L 502.915224 93.263203 
L 510.200867 104.600522 
L 517.406332 114.363569 
L 524.553657 122.586548 
L 531.664485 129.294268 
L 538.760283 134.502393 
L 545.862559 138.217555 
L 552.993081 140.437326 
L 560.174106 141.150055 
L 567.428616 140.334555 
L 574.780578 137.959639 
L 582.255228 133.983472 
L 589.879377 128.352739 
L 597.681773 121.001584 
L 605.693503 111.850281 
" style="fill:none;stroke:#000000;stroke-width:0.5;"/>
    <path clip-path="url(#p730be585ee)" d="M 493.019659 68.698842 
L 500.431824 83.154039 
L 507.724645 95.95904 
L 514.921032 107.166928 
L 522.043088 116.820702 
L 529.112345 124.953806 
L 536.149976 131.590508 
L 543.177006 136.746147 
L 550.214527 140.427234 
L 557.283909 142.631435 
L 564.407018 143.347406 
L 571.606452 142.554496 
L 578.905794 140.222296 
L 586.32988 136.310018 
L 593.90511 130.76569 
L 601.65979 123.525133 
L 609.62453 114.510689 
L 617.832693 103.629647 
" style="fill:none;stroke:#000000;stroke-width:0.5;"/>
    <path clip-path="url(#p730be585ee)" d="M 497.847947 70.095883 
L 505.167655 84.402472 
L 512.374524 97.077413 
L 519.490926 108.172716 
L 526.538478 117.73052 
L 533.53826 125.783607 
L 540.511031 132.355772 
L 547.477432 137.462055 
L 554.458188 141.108848 
L 561.474324 143.293874 
L 568.547368 144.006027 
L 575.69959 143.225086 
L 582.95424 140.921275 
L 590.33582 137.054664 
L 597.870379 131.574388 
L 605.585855 124.417656 
L 613.512455 115.508522 
L 621.683104 104.756363 
" style="fill:none;stroke:#000000;stroke-width:0.5;"/>
    <path clip-path="url(#p730be585ee)" d="M 502.516401 69.92265 
L 509.753208 84.103642 
L 516.883238 96.667911 
L 523.928387 107.666553 
L 530.90984 117.140971 
L 537.848285 125.123379 
L 544.764117 131.637153 
L 551.677641 136.697068 
L 558.609268 140.309393 
L 565.579722 142.471876 
L 572.610248 143.173585 
L 579.722834 142.394631 
L 586.940455 140.10574 
L 594.28733 136.267667 
L 601.789222 130.830436 
L 609.473764 123.732379 
L 617.370838 114.898939 
L 625.513011 104.241191 
" style="fill:none;stroke:#000000;stroke-width:0.5;"/>
    <path clip-path="url(#p730be585ee)" d="M 507.042973 68.22005 
L 514.205872 82.297325 
L 521.267662 94.769362 
L 528.249821 105.686494 
L 535.173155 115.089505 
L 542.058008 123.01012 
L 548.924464 129.471358 
L 555.792536 134.48775 
L 562.682368 138.065444 
L 569.614431 140.202182 
L 576.609729 140.887148 
L 583.69002 140.100694 
L 590.878051 137.813924 
L 598.197818 133.988117 
L 605.674851 128.573987 
L 613.336543 121.510743 
L 621.212521 112.724918 
L 629.335074 102.128926 
" style="fill:none;stroke:#000000;stroke-width:0.5;"/>
    <path clip-path="url(#p730be585ee)" d="M 511.444195 65.018703 
L 518.541692 79.013212 
L 525.543397 91.410679 
L 532.470424 102.260811 
L 539.343252 111.603881 
L 546.181928 119.471209 
L 553.006266 125.885502 
L 559.836036 130.861078 
L 566.691156 134.403961 
L 573.591888 136.511857 
L 580.559041 137.174012 
L 587.614189 136.370934 
L 594.779899 134.073987 
L 602.079993 130.244826 
L 609.539826 124.834667 
L 617.186614 117.783363 
L 625.049795 109.018259 
L 633.161456 98.452775 
" style="fill:none;stroke:#000000;stroke-width:0.5;"/>
    <path clip-path="url(#p730be585ee)" d="M 515.735391 60.339632 
L 522.775573 74.271584 
L 529.724969 86.611513 
L 536.60438 97.408634 
L 543.434002 106.702811 
L 550.233632 114.525032 
L 557.022858 120.897744 
L 563.821247 125.835074 
L 570.648533 129.34292 
L 577.524811 131.418927 
L 584.470739 132.052347 
L 591.507748 131.223765 
L 598.658275 128.904696 
L 605.946017 125.057024 
L 613.396209 119.632292 
L 621.035947 112.570778 
L 628.894547 103.800374 
L 637.003969 93.235187 
" style="fill:none;stroke:#000000;stroke-width:0.5;"/>
    <path clip-path="url(#p730be585ee)" d="M 519.930868 54.19479 
L 526.921462 68.08382 
L 533.826003 80.382755 
L 540.665021 91.140443 
L 547.458477 100.396435 
L 554.225961 108.181461 
L 560.986873 114.517755 
L 567.760617 119.419273 
L 574.566785 122.891786 
L 581.425346 124.932854 
L 588.356844 125.531681 
L 595.382615 124.668853 
L 602.525009 122.315924 
L 609.807647 118.434879 
L 617.255698 112.977407 
L 624.896195 105.884008 
L 632.758398 97.082864 
L 640.874211 86.488467 
" style="fill:none;stroke:#000000;stroke-width:0.5;"/>
    <path clip-path="url(#p730be585ee)" d="M 524.044082 46.587434 
L 530.992512 60.452763 
L 537.859377 72.726888 
L 544.664985 83.458408 
L 551.429102 92.686662 
L 558.171148 100.442186 
L 564.910378 106.747049 
L 571.666072 111.615056 
L 578.457716 115.051849 
L 585.305192 117.054874 
L 592.228974 117.613241 
L 599.250342 116.707455 
L 606.391607 114.309013 
L 613.676359 110.379859 
L 621.129754 104.871668 
L 628.778821 97.724951 
L 636.652826 88.86794 
L 644.78369 78.215215 
" style="fill:none;stroke:#000000;stroke-width:0.5;"/>
    <path clip-path="url(#p730be585ee)" d="M 535.001222 51.372945 
L 541.837368 63.638204 
L 548.616351 74.356611 
L 555.357782 83.567381 
L 562.080951 91.300928 
L 568.805006 97.579193 
L 575.54914 102.415855 
L 582.332772 105.816423 
L 589.175733 107.778203 
L 596.098469 108.290159 
L 603.122245 107.332642 
L 610.269375 104.876986 
L 617.563471 100.884964 
L 625.029724 95.308071 
L 632.695218 88.086631 
L 640.589289 79.14868 
" style="fill:none;stroke:#000000;stroke-width:0.5;"/>
    <path clip-path="url(#p730be585ee)" d="M 538.959568 40.830696 
L 545.771772 53.102911 
L 552.53076 63.821138 
L 559.256029 73.024556 
L 565.966774 80.743521 
L 572.682075 86.999894 
L 579.421073 91.807243 
L 586.203156 95.17094 
L 593.048148 97.088125 
L 599.976501 97.547566 
L 607.009509 96.529382 
L 614.169533 94.004644 
L 621.480255 89.934819 
L 628.966953 84.271059 
L 636.656823 76.953299 
L 644.579337 67.90914 
" style="fill:none;stroke:#000000;stroke-width:0.5;"/>
    <path clip-path="url(#p730be585ee)" d="M 549.674031 41.099113 
L 556.419539 51.83006 
L 563.135074 61.0362 
L 569.839778 68.747899 
L 576.552694 74.986973 
L 583.29295 79.766904 
L 590.079943 83.092918 
L 596.933521 84.961964 
L 603.874186 85.362559 
L 610.923302 84.274516 
L 618.103324 81.668534 
L 625.438048 77.505645 
L 632.952895 71.736489 
L 640.675233 64.300411 
" style="fill:none;stroke:#000000;stroke-width:0.5;"/>
    <path clip-path="url(#p730be585ee)" d="M 560.293801 38.353301 
L 567.005979 47.572247 
L 573.710988 55.283951 
L 580.427876 61.510232 
L 587.175793 66.264496 
L 593.974179 69.551824 
L 600.842948 71.368941 
L 607.802692 71.70406 
L 614.874885 70.536607 
L 622.082121 67.836804 
L 629.448363 63.565108 
L 636.999229 57.67148 
" style="fill:none;stroke:#000000;stroke-width:0.5;"/>
    <path clip-path="url(#p730be585ee)" d="M 577.591401 40.313279 
L 584.31864 46.531197 
L 591.080664 51.261402 
L 597.896992 54.508819 
L 604.787645 56.269917 
L 611.773342 56.532551 
L 618.875715 55.275677 
L 626.117541 52.468927 
" style="fill:none;stroke:#000000;stroke-width:0.5;"/>
    <path clip-path="url(#p730be585ee)" style="fill:none;stroke:#000000;stroke-width:0.5;"/>
    <path clip-path="url(#p730be585ee)" style="fill:none;stroke:#000000;stroke-width:0.5;"/>
    <path clip-path="url(#p730be585ee)" d="M 493.019659 68.698842 
L 497.847947 70.095883 
L 502.516401 69.92265 
L 507.042973 68.22005 
L 511.444195 65.018703 
L 515.735391 60.339632 
L 519.930868 54.19479 
L 524.044082 46.587434 
" style="fill:none;stroke:#000000;stroke-width:0.5;"/>
    <path clip-path="url(#p730be585ee)" d="M 490.431586 75.800468 
L 495.526745 80.30762 
L 500.431824 83.154039 
L 505.167655 84.402472 
L 509.753208 84.103642 
L 514.205872 82.297325 
L 518.541692 79.013212 
L 522.775573 74.271584 
L 526.921462 68.08382 
L 530.992512 60.452763 
L 535.001222 51.372945 
L 538.959568 40.830696 
" style="fill:none;stroke:#000000;stroke-width:0.5;"/>
    <path clip-path="url(#p730be585ee)" d="M 492.735091 82.880398 
L 497.926114 88.928499 
L 502.915224 93.263203 
L 507.724645 95.95904 
L 512.374524 97.077413 
L 516.883238 96.667911 
L 521.267662 94.769362 
L 525.543397 91.410679 
L 529.724969 86.611513 
L 533.826003 80.382755 
L 537.859377 72.726888 
L 541.837368 63.638204 
L 545.771772 53.102911 
L 549.674031 41.099113 
" style="fill:none;stroke:#000000;stroke-width:0.5;"/>
    <path clip-path="url(#p730be585ee)" d="M 494.933297 86.868162 
L 500.229667 94.53165 
L 505.310913 100.41318 
L 510.200867 104.600522 
L 514.921032 107.166928 
L 519.490926 108.172716 
L 523.928387 107.666553 
L 528.249821 105.686494 
L 532.470424 102.260811 
L 536.60438 97.408634 
L 540.665021 91.140443 
L 544.664985 83.458408 
L 548.616351 74.356611 
L 552.53076 63.821138 
L 556.419539 51.83006 
L 560.293801 38.353301 
" style="fill:none;stroke:#000000;stroke-width:0.5;"/>
    <path clip-path="url(#p730be585ee)" d="M 502.448599 97.047985 
L 507.631043 104.556659 
L 512.609263 110.299644 
L 517.406332 114.363569 
L 522.043088 116.820702 
L 526.538478 117.73052 
L 530.90984 117.140971 
L 535.173155 115.089505 
L 539.343252 111.603881 
L 543.434002 106.702811 
L 547.458477 100.396435 
L 551.429102 92.686662 
L 555.357782 83.567381 
L 559.256029 73.024556 
L 563.135074 61.0362 
L 567.005979 47.572247 
" style="fill:none;stroke:#000000;stroke-width:0.5;"/>
    <path clip-path="url(#p730be585ee)" d="M 504.593592 96.36538 
L 509.887375 105.606276 
L 514.962472 112.991479 
L 519.843776 118.622963 
L 524.553657 122.586548 
L 529.112345 124.953806 
L 533.53826 125.783607 
L 537.848285 125.123379 
L 542.058008 123.01012 
L 546.181928 119.471209 
L 550.233632 114.525032 
L 554.225961 108.181461 
L 558.171148 100.442186 
L 562.080951 91.300928 
L 565.966774 80.743521 
L 569.839778 68.747899 
L 573.710988 55.283951 
L 577.591401 40.313279 
" style="fill:none;stroke:#000000;stroke-width:0.5;"/>
    <path clip-path="url(#p730be585ee)" d="M 512.091505 103.430189 
L 517.27307 112.569908 
L 522.246728 119.862217 
L 527.036625 125.408554 
L 531.664485 129.294268 
L 536.149976 131.590508 
L 540.511031 132.355772 
L 544.764117 131.637153 
L 548.924464 129.471358 
L 553.006266 125.885502 
L 557.022858 120.897744 
L 560.986873 114.517755 
L 564.910378 106.747049 
L 568.805006 97.579193 
L 572.682075 86.999894 
L 576.552694 74.986973 
L 580.427876 61.510232 
L 584.31864 46.531197 
" style="fill:none;stroke:#000000;stroke-width:0.5;"/>
    <path clip-path="url(#p730be585ee)" d="M 519.553841 108.882489 
L 524.628845 117.955741 
L 529.506338 125.185293 
L 534.209777 130.672444 
L 538.760283 134.502393 
L 543.177006 136.746147 
L 547.477432 137.462055 
L 551.677641 136.697068 
L 555.792536 134.48775 
L 559.836036 130.861078 
L 563.821247 125.835074 
L 567.760617 119.419273 
L 571.666072 111.615056 
L 575.54914 102.415855 
L 579.421073 91.807243 
L 583.29295 79.766904 
L 587.175793 66.264496 
L 591.080664 51.261402 
" style="fill:none;stroke:#000000;stroke-width:0.5;"/>
    <path clip-path="url(#p730be585ee)" d="M 527.004397 112.729346 
L 531.97782 121.77074 
L 536.763821 128.967568 
L 541.385212 134.421378 
L 545.862559 138.217555 
L 550.214527 140.427234 
L 554.458188 141.108848 
L 558.609268 140.309393 
L 562.682368 138.065444 
L 566.691156 134.403961 
L 570.648533 129.34292 
L 574.566785 122.891786 
L 578.457716 115.051849 
L 582.332772 105.816423 
L 586.203156 95.17094 
L 590.079943 83.092918 
L 593.974179 69.551824 
L 597.896992 54.508819 
" style="fill:none;stroke:#000000;stroke-width:0.5;"/>
    <path clip-path="url(#p730be585ee)" d="M 534.467153 114.96752 
L 539.343319 124.011946 
L 544.041916 131.206306 
L 548.585156 136.652798 
L 552.993081 140.437326 
L 557.283909 142.631435 
L 561.474324 143.293874 
L 565.579722 142.471876 
L 569.614431 140.202182 
L 573.591888 136.511857 
L 577.524811 131.418927 
L 581.425346 124.932854 
L 585.305192 117.054874 
L 589.175733 107.778203 
L 593.048148 97.088125 
L 596.933521 84.961964 
L 600.842948 71.368941 
L 604.787645 56.269917 
" style="fill:none;stroke:#000000;stroke-width:0.5;"/>
    <path clip-path="url(#p730be585ee)" d="M 541.966536 115.583257 
L 546.749123 124.666287 
L 551.363832 131.889002 
L 555.832309 137.354668 
L 560.174106 141.150055 
L 564.407018 143.347406 
L 568.547368 144.006027 
L 572.610248 143.173585 
L 576.609729 140.887148 
L 580.559041 137.174012 
L 584.470739 132.052347 
L 588.356844 125.531681 
L 592.228974 117.613241 
L 596.098469 108.290159 
L 599.976501 97.547566 
L 603.874186 85.362559 
L 607.802692 71.70406 
L 611.773342 56.532551 
" style="fill:none;stroke:#000000;stroke-width:0.5;"/>
    <path clip-path="url(#p730be585ee)" d="M 549.527692 114.551914 
L 554.219733 123.710211 
L 558.753498 130.993035 
L 563.150097 136.50515 
L 567.428616 140.334555 
L 571.606452 142.554496 
L 575.69959 143.225086 
L 579.722834 142.394631 
L 583.69002 140.100694 
L 587.614189 136.370934 
L 591.507748 131.223765 
L 595.382615 124.668853 
L 599.250342 116.707455 
L 603.122245 107.332642 
L 607.009509 96.529382 
L 610.923302 84.274516 
L 614.874885 70.536607 
L 618.875715 55.275677 
" style="fill:none;stroke:#000000;stroke-width:0.5;"/>
    <path clip-path="url(#p730be585ee)" d="M 557.176786 111.837382 
L 561.780656 121.109157 
L 566.23584 128.485161 
L 570.562933 134.072116 
L 574.780578 137.959639 
L 578.905794 140.222296 
L 582.95424 140.921275 
L 586.940455 140.10574 
L 590.878051 137.813924 
L 594.779899 134.073987 
L 598.658275 128.904696 
L 602.525009 122.315924 
L 606.391607 114.309013 
L 610.269375 104.876986 
L 614.169533 94.004644 
L 618.103324 81.668534 
L 622.082121 67.836804 
L 626.117541 52.468927 
" style="fill:none;stroke:#000000;stroke-width:0.5;"/>
    <path clip-path="url(#p730be585ee)" d="M 569.458716 116.81681 
L 573.837079 124.320807 
L 578.096511 130.01248 
L 582.255228 133.983472 
L 586.32988 136.310018 
L 590.33582 137.054664 
L 594.28733 136.267667 
L 598.197818 133.988117 
L 602.079993 130.244826 
L 605.946017 125.057024 
L 609.807647 118.434879 
L 613.676359 110.379859 
L 617.563471 100.884964 
L 621.480255 89.934819 
L 625.438048 77.505645 
L 629.448363 63.565108 
" style="fill:none;stroke:#000000;stroke-width:0.5;"/>
    <path clip-path="url(#p730be585ee)" d="M 577.282402 110.774137 
L 581.585068 118.443162 
L 585.778127 124.271322 
L 589.879377 128.352739 
L 593.90511 130.76569 
L 597.870379 131.574388 
L 601.789222 130.830436 
L 605.674851 128.573987 
L 609.539826 124.834667 
L 613.396209 119.632292 
L 617.255698 112.977407 
L 621.129754 104.871668 
L 625.029724 95.308071 
L 628.966953 84.271059 
L 632.952895 71.736489 
L 636.999229 57.67148 
" style="fill:none;stroke:#000000;stroke-width:0.5;"/>
    <path clip-path="url(#p730be585ee)" d="M 589.509666 110.782011 
L 593.637045 116.780785 
L 597.681773 121.001584 
L 601.65979 123.525133 
L 605.585855 124.417656 
L 609.473764 123.732379 
L 613.336543 121.510743 
L 617.186614 117.783363 
L 621.035947 112.570778 
L 624.896195 105.884008 
L 628.778821 97.724951 
L 632.695218 88.086631 
L 636.656823 76.953299 
L 640.675233 64.300411 
" style="fill:none;stroke:#000000;stroke-width:0.5;"/>
    <path clip-path="url(#p730be585ee)" d="M 601.704912 107.458692 
L 605.693503 111.850281 
L 609.62453 114.510689 
L 613.512455 115.508522 
L 617.370838 114.898939 
L 621.212521 112.724918 
L 625.049795 109.018259 
L 628.894547 103.800374 
L 632.758398 97.082864 
L 636.652826 88.86794 
L 640.589289 79.14868 
L 644.579337 67.90914 
" style="fill:none;stroke:#000000;stroke-width:0.5;"/>
    <path clip-path="url(#p730be585ee)" d="M 617.832693 103.629647 
L 621.683104 104.756363 
L 625.513011 104.241191 
L 629.335074 102.128926 
L 633.161456 98.452775 
L 637.003969 93.235187 
L 640.874211 86.488467 
L 644.78369 78.215215 
" style="fill:none;stroke:#000000;stroke-width:0.5;"/>
    <path clip-path="url(#p730be585ee)" style="fill:none;stroke:#000000;stroke-width:0.5;"/>
   </g>
  </g>
 </g>
 <defs>
  <clipPath id="p50c8014827">
   <rect height="163.08" width="163.08" x="90.518824" y="25.92"/>
  </clipPath>
  <clipPath id="p97026dad99">
   <rect height="163.08" width="163.08" x="287.46" y="25.92"/>
  </clipPath>
  <clipPath id="p730be585ee">
   <rect height="163.08" width="163.08" x="484.401176" y="25.92"/>
  </clipPath>
 </defs>
</svg>
